<?xml version="1.0" encoding="UTF-8"?>
<svg xmlns="http://www.w3.org/2000/svg" xmlns:xlink="http://www.w3.org/1999/xlink" width="473.468" height="275.043" viewBox="0 0 473.468 275.043">
<defs>
<g>
<g id="glyph-0-0">
<path d="M 10.0625 -9.265625 C 10.0625 -9.71875 9.96875 -9.953125 9.375 -9.953125 L 8.65625 -9.953125 C 8.109375 -9.953125 7.953125 -9.765625 7.953125 -9.265625 L 7.953125 -5.859375 L 3.40625 -5.859375 L 3.40625 -9.265625 C 3.40625 -9.71875 3.3125 -9.953125 2.71875 -9.953125 L 2 -9.953125 C 1.484375 -9.953125 1.3125 -9.796875 1.3125 -9.265625 L 1.3125 -0.6875 C 1.3125 -0.171875 1.46875 0 2 0 L 2.71875 0 C 3.265625 0 3.40625 -0.1875 3.40625 -0.6875 L 3.40625 -4.5 L 7.953125 -4.5 L 7.953125 -0.6875 C 7.953125 -0.234375 8.0625 0 8.65625 0 L 9.375 0 C 9.921875 0 10.0625 -0.1875 10.0625 -0.6875 Z M 10.0625 -9.265625 "/>
</g>
<g id="glyph-0-1">
<path d="M 7.4375 -3.234375 C 7.4375 -5.578125 6.28125 -6.8125 3.9375 -6.8125 C 1.546875 -6.8125 0.4375 -5.53125 0.4375 -3.234375 C 0.4375 -0.890625 1.671875 0.15625 3.9375 0.15625 C 6.1875 0.15625 7.4375 -0.875 7.4375 -3.234375 Z M 3.9375 -0.96875 C 2.390625 -0.96875 2.390625 -2.25 2.390625 -3.40625 C 2.390625 -4.5 2.390625 -5.78125 3.9375 -5.78125 C 5.484375 -5.78125 5.484375 -4.515625 5.484375 -3.40625 C 5.484375 -2.265625 5.484375 -0.96875 3.9375 -0.96875 Z M 3.9375 -0.96875 "/>
</g>
<g id="glyph-0-2">
<path d="M 10.3125 -6.171875 C 10.265625 -6.5625 10.015625 -6.5625 9.5625 -6.5625 C 8.890625 -6.5625 8.71875 -6.53125 8.515625 -5.78125 C 8.203125 -4.671875 7.578125 -2.4375 7.359375 -1.625 L 6.140625 -5.921875 C 6.046875 -6.234375 5.953125 -6.5625 5.296875 -6.5625 C 5.078125 -6.5625 4.75 -6.5625 4.546875 -6.234375 C 4.421875 -6.03125 3.78125 -3.546875 3.28125 -1.859375 L 2.140625 -5.921875 C 2 -6.40625 1.84375 -6.5625 1.25 -6.5625 L 0.96875 -6.5625 C 0.6875 -6.5625 0.390625 -6.5625 0.34375 -6.171875 L 1.859375 -0.65625 C 2.046875 0 2.421875 0 2.78125 0 L 3.1875 0 C 3.859375 0 3.96875 -0.21875 4.125 -0.78125 C 4.453125 -1.984375 4.984375 -3.78125 5.03125 -4.53125 L 5.046875 -4.546875 C 5.140625 -3.734375 5.765625 -1.46875 5.953125 -0.78125 C 6.109375 -0.265625 6.1875 0 6.90625 0 L 7.875 0 C 8.484375 0 8.640625 -0.171875 8.78125 -0.65625 Z M 10.3125 -6.171875 "/>
</g>
<g id="glyph-0-3">
<path d="M 7.15625 -9.265625 C 7.15625 -9.71875 7.0625 -9.953125 6.46875 -9.953125 L 5.9375 -9.953125 C 5.390625 -9.953125 5.25 -9.765625 5.25 -9.265625 L 5.25 -6.015625 C 4.609375 -6.625 3.890625 -6.734375 3.4375 -6.734375 C 0.53125 -6.734375 0.53125 -3.96875 0.53125 -3.265625 C 0.53125 -2.609375 0.53125 0.15625 3.375 0.15625 C 3.96875 0.15625 4.59375 -0.015625 5.203125 -0.671875 C 5.203125 -0.140625 5.40625 0 5.890625 0 L 6.46875 0 C 7.015625 0 7.15625 -0.1875 7.15625 -0.6875 Z M 5.203125 -1.796875 C 5.203125 -1.546875 5.203125 -1.421875 4.796875 -1.140625 C 4.4375 -0.90625 4.109375 -0.875 3.9375 -0.875 C 2.484375 -0.875 2.484375 -2.1875 2.484375 -3.265625 C 2.484375 -4.34375 2.484375 -5.6875 4.09375 -5.6875 C 4.5 -5.6875 4.890625 -5.546875 5.203125 -5.25 Z M 5.203125 -1.796875 "/>
</g>
<g id="glyph-0-4">
<path d="M 6.796875 -9.34375 C 6.578125 -9.953125 6.171875 -9.953125 5.875 -9.953125 L 4.625 -9.953125 C 4.328125 -9.953125 3.921875 -9.953125 3.703125 -9.34375 L 0.671875 -0.671875 C 0.609375 -0.484375 0.609375 -0.453125 0.609375 -0.390625 C 0.609375 0 0.96875 0 1.15625 0 L 1.671875 0 C 1.9375 0 2.375 0 2.578125 -0.578125 L 3.140625 -2.171875 L 7.109375 -2.171875 L 7.609375 -0.78125 C 7.78125 -0.28125 7.875 0 8.5625 0 L 9.34375 0 C 9.53125 0 9.890625 0 9.890625 -0.390625 C 9.890625 -0.453125 9.890625 -0.484375 9.828125 -0.671875 Z M 4.609375 -6.4375 C 4.8125 -7.078125 5 -7.609375 5.125 -8.140625 L 5.140625 -8.140625 C 5.203125 -7.78125 5.203125 -7.765625 5.328125 -7.4375 L 6.6875 -3.40625 L 3.578125 -3.40625 Z M 4.609375 -6.4375 "/>
</g>
<g id="glyph-0-5">
<path d="M 2.78125 -9.265625 C 2.78125 -9.71875 2.6875 -9.953125 2.09375 -9.953125 L 1.5625 -9.953125 C 1.046875 -9.953125 0.875 -9.796875 0.875 -9.265625 L 0.875 -0.6875 C 0.875 -0.171875 1.03125 0 1.5625 0 L 2.09375 0 C 2.640625 0 2.78125 -0.1875 2.78125 -0.6875 Z M 2.78125 -9.265625 "/>
</g>
<g id="glyph-0-6">
<path d="M 1.46875 -9.96875 C 1 -9.96875 0.78125 -9.890625 0.78125 -9.3125 L 0.78125 -8.65625 C 0.78125 -8.1875 0.921875 -8 1.453125 -8 L 2.1875 -8 C 2.890625 -8 2.890625 -8.3125 2.890625 -8.984375 C 2.890625 -9.671875 2.890625 -9.96875 2.1875 -9.96875 Z M 2.78125 -5.875 C 2.78125 -6.34375 2.6875 -6.5625 2.09375 -6.5625 L 1.5625 -6.5625 C 1.046875 -6.5625 0.875 -6.40625 0.875 -5.875 L 0.875 -0.6875 C 0.875 -0.171875 1.03125 0 1.5625 0 L 2.09375 0 C 2.640625 0 2.78125 -0.1875 2.78125 -0.6875 Z M 2.78125 -5.875 "/>
</g>
<g id="glyph-0-7">
<path d="M 6.5625 -0.71875 C 6.5625 -0.875 6.5 -1.53125 6.46875 -1.71875 C 6.46875 -1.765625 6.4375 -1.90625 6.296875 -1.90625 C 6.234375 -1.90625 6.203125 -1.90625 6.0625 -1.765625 C 5.828125 -1.546875 5.15625 -0.96875 3.96875 -0.96875 C 2.484375 -0.96875 2.484375 -2.40625 2.484375 -3.328125 C 2.484375 -4.484375 2.546875 -5.6875 4.015625 -5.6875 C 4.953125 -5.6875 5.328125 -5.46875 5.859375 -5.03125 C 6.03125 -4.875 6.046875 -4.875 6.109375 -4.875 C 6.25 -4.875 6.28125 -5 6.296875 -5.0625 C 6.328125 -5.171875 6.46875 -5.984375 6.46875 -6.046875 C 6.46875 -6.1875 6.375 -6.234375 6.125 -6.359375 C 5.4375 -6.671875 5 -6.8125 4 -6.8125 C 1.859375 -6.8125 0.53125 -5.8125 0.53125 -3.296875 C 0.53125 -0.921875 1.765625 0.15625 3.9375 0.15625 C 4.3125 0.15625 5.171875 0.140625 6.140625 -0.34375 C 6.546875 -0.5625 6.5625 -0.578125 6.5625 -0.71875 Z M 6.5625 -0.71875 "/>
</g>
<g id="glyph-0-8">
<path d="M 6.1875 -3.0625 C 6.515625 -3.0625 6.875 -3.078125 6.875 -3.734375 C 6.875 -5.578125 6.015625 -6.8125 3.875 -6.8125 C 1.578125 -6.8125 0.4375 -5.515625 0.4375 -3.34375 C 0.4375 -0.984375 1.8125 0.15625 4.0625 0.15625 C 4.609375 0.15625 5.421875 0.09375 6.375 -0.390625 C 6.6875 -0.546875 6.78125 -0.59375 6.78125 -0.765625 C 6.78125 -0.859375 6.734375 -1.28125 6.734375 -1.390625 C 6.671875 -1.84375 6.65625 -1.84375 6.53125 -1.84375 C 6.46875 -1.84375 6.4375 -1.84375 6.28125 -1.703125 C 5.4375 -0.96875 4.578125 -0.875 4.109375 -0.875 C 2.5 -0.875 2.328125 -2.15625 2.28125 -3.0625 Z M 2.296875 -3.828125 C 2.34375 -4.703125 2.625 -5.78125 3.875 -5.78125 C 5.015625 -5.78125 5.234375 -4.953125 5.28125 -3.828125 Z M 2.296875 -3.828125 "/>
</g>
<g id="glyph-0-9">
<path d="M 6.65625 -4.53125 C 6.65625 -6.796875 4.46875 -6.8125 3.765625 -6.8125 C 3.078125 -6.8125 2.359375 -6.75 1.40625 -6.359375 C 1.109375 -6.21875 1.03125 -6.1875 1.03125 -6.03125 C 1.03125 -5.921875 1.125 -5.09375 1.140625 -4.984375 C 1.140625 -4.890625 1.21875 -4.8125 1.3125 -4.8125 C 1.390625 -4.8125 1.4375 -4.859375 1.484375 -4.90625 C 2.09375 -5.546875 2.8125 -5.859375 3.703125 -5.859375 C 4.46875 -5.859375 4.703125 -5.390625 4.703125 -4.546875 L 4.703125 -4.046875 C 4.203125 -4.046875 0.4375 -4.015625 0.4375 -1.90625 C 0.4375 -0.90625 1.25 0.15625 2.515625 0.15625 C 3 0.15625 4.078125 0.015625 4.75 -0.96875 L 4.75 -0.6875 C 4.75 -0.234375 4.84375 0 5.4375 0 L 5.96875 0 C 6.515625 0 6.65625 -0.1875 6.65625 -0.6875 Z M 4.703125 -2.203125 C 4.703125 -0.875 3.34375 -0.875 3.296875 -0.875 C 2.703125 -0.875 2.3125 -1.390625 2.3125 -1.9375 C 2.3125 -3.34375 4.296875 -3.4375 4.703125 -3.453125 Z M 4.703125 -2.203125 "/>
</g>
<g id="glyph-0-10">
<path d="M 7.171875 -4.65625 C 7.171875 -6.140625 6.546875 -6.734375 5.078125 -6.734375 C 3.578125 -6.734375 2.921875 -5.640625 2.734375 -5.25 L 2.71875 -5.25 L 2.71875 -5.96875 C 2.71875 -6.421875 2.625 -6.65625 2.03125 -6.65625 L 1.546875 -6.65625 C 1.03125 -6.65625 0.859375 -6.5 0.859375 -5.96875 L 0.859375 -0.6875 C 0.859375 -0.171875 1.015625 0 1.546875 0 L 2.125 0 C 2.671875 0 2.8125 -0.1875 2.8125 -0.6875 L 2.8125 -3.859375 C 2.8125 -5.109375 3.640625 -5.6875 4.390625 -5.6875 C 5.078125 -5.6875 5.21875 -5.359375 5.21875 -4.640625 L 5.21875 -0.6875 C 5.21875 -0.234375 5.328125 0 5.90625 0 L 6.484375 0 C 7.03125 0 7.171875 -0.1875 7.171875 -0.6875 Z M 7.171875 -4.65625 "/>
</g>
<g id="glyph-0-11">
<path d="M 2 -9.953125 C 1.484375 -9.953125 1.3125 -9.796875 1.3125 -9.265625 L 1.3125 -0.6875 C 1.3125 -0.171875 1.46875 0 2 0 L 5.921875 0 C 6.984375 0 9.625 -0.1875 9.625 -2.78125 C 9.625 -4.8125 7.625 -5.125 7.09375 -5.203125 C 8.421875 -5.515625 9.1875 -6.25 9.1875 -7.375 C 9.1875 -9.953125 6.125 -9.953125 5.515625 -9.953125 Z M 3.328125 -5.6875 L 3.328125 -8.71875 L 5 -8.71875 C 5.5625 -8.71875 7.234375 -8.671875 7.234375 -7.328125 C 7.234375 -5.6875 5.34375 -5.6875 4.984375 -5.6875 Z M 3.328125 -1.234375 L 3.328125 -4.65625 L 5.140625 -4.65625 C 5.640625 -4.65625 7.625 -4.65625 7.625 -2.8125 C 7.625 -1.328125 6.09375 -1.234375 5.40625 -1.234375 Z M 3.328125 -1.234375 "/>
</g>
<g id="glyph-0-12">
<path d="M 2.78125 -9.265625 C 2.78125 -9.71875 2.6875 -9.953125 2.09375 -9.953125 L 1.5625 -9.953125 C 1.046875 -9.953125 0.875 -9.796875 0.875 -9.265625 L 0.875 -0.6875 C 0.875 -0.171875 1.03125 0 1.5625 0 L 2.140625 0 C 2.375 0 2.8125 0 2.828125 -0.5625 C 3.484375 0.15625 4.21875 0.15625 4.453125 0.15625 C 7.5 0.15625 7.5 -2.59375 7.5 -3.3125 C 7.5 -4 7.5 -6.734375 4.8125 -6.734375 C 3.625 -6.734375 2.90625 -6.0625 2.78125 -5.921875 Z M 2.828125 -5.1875 C 3.015625 -5.359375 3.4375 -5.6875 4.109375 -5.6875 C 5.546875 -5.6875 5.546875 -4.375 5.546875 -3.296875 C 5.546875 -2.234375 5.546875 -0.875 3.9375 -0.875 C 3.34375 -0.875 2.984375 -1.234375 2.828125 -1.4375 Z M 2.828125 -5.1875 "/>
</g>
<g id="glyph-0-13">
<path d="M 5.6875 -2.015625 C 5.6875 -2.828125 5.25 -3.328125 4.984375 -3.5625 C 4.421875 -4.078125 3.921875 -4.15625 3.3125 -4.28125 C 2.53125 -4.421875 1.953125 -4.53125 1.953125 -5.09375 C 1.953125 -5.6875 2.421875 -5.796875 2.984375 -5.796875 C 3.9375 -5.796875 4.453125 -5.4375 4.828125 -5.125 C 4.984375 -4.984375 5 -4.984375 5.0625 -4.984375 C 5.203125 -4.984375 5.234375 -5.109375 5.25 -5.15625 C 5.28125 -5.28125 5.421875 -6.078125 5.421875 -6.15625 C 5.421875 -6.390625 4.65625 -6.578125 4.5 -6.640625 C 3.9375 -6.796875 3.46875 -6.8125 3.09375 -6.8125 C 2.453125 -6.8125 0.53125 -6.8125 0.53125 -4.765625 C 0.53125 -4.0625 0.84375 -3.625 1.234375 -3.28125 C 1.734375 -2.828125 2.296875 -2.71875 3.109375 -2.5625 C 3.53125 -2.5 4.265625 -2.359375 4.265625 -1.734375 C 4.265625 -1.0625 3.703125 -0.96875 3.140625 -0.96875 C 2.515625 -0.96875 1.703125 -1.140625 1.03125 -1.953125 C 0.96875 -2.015625 0.921875 -2.0625 0.828125 -2.0625 C 0.6875 -2.0625 0.65625 -1.9375 0.640625 -1.84375 C 0.609375 -1.65625 0.4375 -0.828125 0.4375 -0.6875 C 0.4375 -0.4375 1.5 -0.09375 1.515625 -0.09375 C 2.3125 0.15625 2.890625 0.15625 3.140625 0.15625 C 3.875 0.15625 5.6875 0.09375 5.6875 -2.015625 Z M 5.6875 -2.015625 "/>
</g>
<g id="glyph-0-14">
<path d="M 7.171875 -5.875 C 7.171875 -6.34375 7.078125 -6.5625 6.484375 -6.5625 L 5.90625 -6.5625 C 5.359375 -6.5625 5.21875 -6.390625 5.21875 -5.875 L 5.21875 -2.484375 C 5.21875 -1.53125 4.71875 -0.71875 3.703125 -0.71875 C 2.890625 -0.71875 2.8125 -0.921875 2.8125 -1.671875 L 2.8125 -5.875 C 2.8125 -6.34375 2.71875 -6.5625 2.125 -6.5625 L 1.546875 -6.5625 C 1.03125 -6.5625 0.859375 -6.40625 0.859375 -5.875 L 0.859375 -1.8125 C 0.859375 -0.265625 1.6875 0.15625 3.1875 0.15625 C 3.578125 0.15625 4.59375 0.15625 5.265625 -1.0625 L 5.265625 -0.6875 C 5.265625 -0.234375 5.359375 0 5.953125 0 L 6.484375 0 C 7.03125 0 7.171875 -0.1875 7.171875 -0.6875 Z M 7.171875 -5.875 "/>
</g>
<g id="glyph-0-15">
<path d="M 2.78125 -3.296875 C 2.78125 -4.65625 3.921875 -5.21875 4.8125 -5.28125 C 5.078125 -5.296875 5.109375 -5.296875 5.109375 -5.671875 L 5.109375 -6.34375 C 5.109375 -6.625 5.109375 -6.734375 4.84375 -6.734375 C 4.453125 -6.734375 3.40625 -6.578125 2.71875 -5.03125 L 2.71875 -5.96875 C 2.71875 -6.421875 2.609375 -6.65625 2.015625 -6.65625 L 1.5625 -6.65625 C 1.046875 -6.65625 0.875 -6.5 0.875 -5.96875 L 0.875 -0.6875 C 0.875 -0.171875 1.03125 0 1.5625 0 L 2.09375 0 C 2.640625 0 2.78125 -0.1875 2.78125 -0.6875 Z M 2.78125 -3.296875 "/>
</g>
<g id="glyph-0-16">
<path d="M 6.71875 -5.890625 C 6.78125 -6.078125 6.78125 -6.109375 6.78125 -6.1875 C 6.78125 -6.5625 6.390625 -6.5625 6.203125 -6.5625 L 5.890625 -6.5625 C 5.671875 -6.5625 5.34375 -6.5625 5.140625 -6.234375 C 5.09375 -6.171875 3.9375 -3 3.859375 -2.03125 L 3.84375 -2.03125 C 3.765625 -2.734375 3.1875 -4.078125 2.5625 -5.453125 C 2.171875 -6.359375 2.0625 -6.5625 1.34375 -6.5625 L 0.96875 -6.5625 C 0.78125 -6.5625 0.421875 -6.5625 0.421875 -6.203125 C 0.421875 -6.140625 0.453125 -6.03125 0.484375 -5.96875 L 3.203125 0 C 3.078125 0.296875 3.046875 0.453125 3 0.609375 C 2.828125 1.078125 2.578125 1.71875 1.8125 1.71875 C 1.328125 1.71875 1 1.515625 0.84375 1.421875 C 0.78125 1.375 0.75 1.359375 0.703125 1.359375 C 0.625 1.359375 0.515625 1.40625 0.515625 1.578125 C 0.515625 1.6875 0.609375 2.6875 0.640625 2.734375 C 0.78125 2.90625 1.546875 2.9375 1.78125 2.9375 C 3.5625 2.9375 4.265625 1.25 4.375 0.90625 Z M 6.71875 -5.890625 "/>
</g>
<g id="glyph-0-17">
<path d="M 3.125 -5.53125 L 4.40625 -5.53125 C 4.578125 -5.53125 5.09375 -5.53125 5.09375 -6.046875 C 5.09375 -6.5625 4.578125 -6.5625 4.40625 -6.5625 L 3.125 -6.5625 L 3.125 -7.765625 C 3.125 -8.21875 3.03125 -8.453125 2.4375 -8.453125 L 2 -8.453125 C 1.484375 -8.453125 1.3125 -8.296875 1.3125 -7.765625 L 1.3125 -6.5625 L 0.96875 -6.5625 C 0.8125 -6.5625 0.28125 -6.5625 0.28125 -6.046875 C 0.28125 -5.53125 0.796875 -5.53125 0.96875 -5.53125 L 1.265625 -5.53125 L 1.265625 -1.90625 C 1.265625 -0.453125 1.78125 0.15625 2.765625 0.15625 C 2.890625 0.15625 3.53125 0.15625 4.28125 -0.078125 C 4.515625 -0.140625 5.34375 -0.40625 5.34375 -0.671875 C 5.34375 -0.71875 5.328125 -0.8125 5.234375 -1.125 C 5.15625 -1.40625 5.140625 -1.484375 5 -1.484375 C 4.9375 -1.484375 4.921875 -1.484375 4.828125 -1.390625 C 4.671875 -1.28125 4.28125 -0.96875 3.6875 -0.96875 C 3.34375 -0.96875 3.125 -1.203125 3.125 -2.15625 Z M 3.125 -5.53125 "/>
</g>
<g id="glyph-0-18">
<path d="M 4.25 -3.578125 C 4.25 -5.09375 5.265625 -5.890625 5.765625 -6.28125 C 6.1875 -6.578125 6.5625 -7.078125 6.5625 -7.953125 C 6.5625 -10.109375 4.3125 -10.109375 3.578125 -10.109375 C 3.25 -10.109375 2.3125 -10.109375 1.3125 -9.5625 C 1.125 -9.46875 0.875 -9.34375 0.875 -9.203125 C 0.875 -9.1875 0.875 -9.15625 0.953125 -8.984375 L 1.203125 -8.28125 C 1.265625 -8.109375 1.296875 -8.03125 1.421875 -8.03125 C 1.5 -8.03125 1.53125 -8.0625 1.609375 -8.15625 C 2.171875 -8.828125 2.84375 -9.078125 3.546875 -9.078125 C 4.484375 -9.078125 4.609375 -8.765625 4.609375 -8.015625 C 4.609375 -7.328125 4.46875 -7.203125 4.171875 -6.890625 C 2.734375 -5.421875 2.734375 -3.921875 2.734375 -3.421875 C 2.734375 -3.25 2.734375 -2.96875 2.75 -2.921875 C 2.8125 -2.8125 2.890625 -2.8125 3.140625 -2.8125 L 3.84375 -2.8125 C 4.234375 -2.8125 4.25 -2.828125 4.25 -3.203125 Z M 2.546875 -0.6875 C 2.546875 -0.171875 2.71875 0 3.234375 0 L 3.75 0 C 4.28125 0 4.4375 -0.1875 4.4375 -0.6875 L 4.4375 -1.1875 C 4.4375 -1.65625 4.328125 -1.875 3.75 -1.875 L 3.234375 -1.875 C 2.703125 -1.875 2.546875 -1.6875 2.546875 -1.1875 Z M 2.546875 -0.6875 "/>
</g>
<g id="glyph-1-0">
<path d="M 7.171875 -5.796875 C 7.15625 -5.84375 7.09375 -5.953125 7.09375 -6 C 7.09375 -6.015625 7.109375 -6.03125 7.359375 -6.203125 L 8.75 -7.296875 C 10.671875 -8.796875 11.296875 -9.296875 12.296875 -9.375 C 12.390625 -9.390625 12.53125 -9.390625 12.53125 -9.640625 C 12.53125 -9.71875 12.5 -9.796875 12.375 -9.796875 C 12.21875 -9.796875 12.046875 -9.765625 11.890625 -9.765625 L 11.34375 -9.765625 C 10.90625 -9.765625 10.421875 -9.796875 10 -9.796875 C 9.890625 -9.796875 9.71875 -9.796875 9.71875 -9.53125 C 9.71875 -9.390625 9.828125 -9.375 9.90625 -9.375 C 10.0625 -9.359375 10.25 -9.3125 10.25 -9.109375 C 10.25 -8.828125 9.828125 -8.484375 9.703125 -8.390625 L 4.09375 -4.015625 L 5.28125 -8.75 C 5.40625 -9.234375 5.4375 -9.375 6.453125 -9.375 C 6.734375 -9.375 6.859375 -9.375 6.859375 -9.65625 C 6.859375 -9.796875 6.71875 -9.796875 6.640625 -9.796875 C 6.390625 -9.796875 6.078125 -9.765625 5.8125 -9.765625 L 4.109375 -9.765625 C 3.859375 -9.765625 3.546875 -9.796875 3.28125 -9.796875 C 3.171875 -9.796875 3.015625 -9.796875 3.015625 -9.53125 C 3.015625 -9.375 3.140625 -9.375 3.359375 -9.375 C 4.234375 -9.375 4.234375 -9.265625 4.234375 -9.109375 C 4.234375 -9.078125 4.234375 -9 4.171875 -8.78125 L 2.234375 -1.0625 C 2.109375 -0.5625 2.078125 -0.421875 1.078125 -0.421875 C 0.796875 -0.421875 0.65625 -0.421875 0.65625 -0.15625 C 0.65625 0 0.78125 0 0.875 0 C 1.140625 0 1.4375 -0.03125 1.703125 -0.03125 L 3.390625 -0.03125 C 3.65625 -0.03125 3.953125 0 4.234375 0 C 4.34375 0 4.5 0 4.5 -0.265625 C 4.5 -0.421875 4.375 -0.421875 4.15625 -0.421875 C 3.28125 -0.421875 3.28125 -0.53125 3.28125 -0.671875 C 3.28125 -0.78125 3.375 -1.140625 3.421875 -1.359375 L 3.984375 -3.578125 L 6.171875 -5.296875 C 6.578125 -4.375 7.34375 -2.53125 7.9375 -1.140625 C 7.96875 -1.046875 8 -0.96875 8 -0.859375 C 8 -0.4375 7.4375 -0.421875 7.296875 -0.421875 C 7.171875 -0.421875 7.03125 -0.421875 7.03125 -0.140625 C 7.03125 0 7.1875 0 7.234375 0 C 7.734375 0 8.265625 -0.03125 8.765625 -0.03125 L 9.453125 -0.03125 C 9.671875 -0.03125 9.90625 0 10.125 0 C 10.21875 0 10.375 0 10.375 -0.265625 C 10.375 -0.421875 10.234375 -0.421875 10.09375 -0.421875 C 9.5625 -0.4375 9.375 -0.546875 9.171875 -1.0625 Z M 7.171875 -5.796875 "/>
</g>
<g id="glyph-2-0">
<path d="M 4.5 -7.5 L 5.5625 -7.5 C 5.703125 -7.5 5.84375 -7.484375 5.984375 -7.484375 L 7.546875 -7.484375 L 7.546875 -8.234375 L 0.421875 -8.234375 L 0.421875 -7.484375 L 2 -7.484375 C 2.140625 -7.484375 2.28125 -7.5 2.421875 -7.5 L 3.484375 -7.5 L 3.484375 0 L 4.5 0 Z M 4.5 -7.5 "/>
</g>
<g id="glyph-2-1">
<path d="M 5.0625 -3.59375 C 5.0625 -4.328125 4.90625 -5.421875 3.46875 -5.421875 C 2.640625 -5.421875 2.09375 -4.953125 1.8125 -4.609375 L 1.8125 -8.296875 L 0.921875 -8.296875 L 0.921875 0 L 1.828125 0 L 1.828125 -2.96875 C 1.828125 -3.71875 2.109375 -4.703125 3.015625 -4.703125 C 4.125 -4.703125 4.15625 -3.9375 4.15625 -3.515625 L 4.15625 0 L 5.0625 0 Z M 5.0625 -3.59375 "/>
</g>
<g id="glyph-2-2">
<path d="M 4.859375 -2.6875 C 4.859375 -3.203125 4.8125 -3.9375 4.4375 -4.5625 C 3.9375 -5.390625 3.109375 -5.484375 2.765625 -5.484375 C 1.46875 -5.484375 0.390625 -4.25 0.390625 -2.6875 C 0.390625 -1.109375 1.546875 0.125 2.921875 0.125 C 3.484375 0.125 4.140625 -0.03125 4.796875 -0.515625 C 4.796875 -0.5625 4.75 -0.9375 4.75 -0.953125 C 4.75 -0.96875 4.71875 -1.234375 4.71875 -1.28125 C 4.015625 -0.6875 3.3125 -0.59375 2.953125 -0.59375 C 2.03125 -0.59375 1.25 -1.421875 1.21875 -2.6875 Z M 1.296875 -3.328125 C 1.5 -4.140625 2.0625 -4.765625 2.765625 -4.765625 C 3.125 -4.765625 3.953125 -4.609375 4.15625 -3.328125 Z M 1.296875 -3.328125 "/>
</g>
<g id="glyph-2-3">
<path d="M 4.015625 -5.109375 C 3.25 -5.46875 2.609375 -5.484375 2.328125 -5.484375 C 2.0625 -5.484375 0.390625 -5.484375 0.390625 -3.9375 C 0.390625 -3.40625 0.6875 -3.046875 0.859375 -2.875 C 1.296875 -2.515625 1.59375 -2.453125 2.296875 -2.3125 C 2.6875 -2.21875 3.375 -2.078125 3.375 -1.453125 C 3.375 -0.625 2.453125 -0.625 2.28125 -0.625 C 1.8125 -0.625 1.109375 -0.75 0.46875 -1.21875 L 0.328125 -0.40625 C 0.375 -0.375 1.1875 0.125 2.296875 0.125 C 3.84375 0.125 4.203125 -0.8125 4.203125 -1.515625 C 4.203125 -2.125 3.84375 -2.515625 3.796875 -2.5625 C 3.34375 -3.03125 2.984375 -3.09375 2.265625 -3.234375 C 1.828125 -3.328125 1.21875 -3.4375 1.21875 -4.046875 C 1.21875 -4.78125 2.0625 -4.78125 2.21875 -4.78125 C 2.84375 -4.78125 3.34375 -4.640625 3.875 -4.34375 Z M 4.015625 -5.109375 "/>
</g>
<g id="glyph-2-4">
<path d="M 4.671875 -3.5 C 4.671875 -4.65625 3.84375 -5.484375 2.734375 -5.484375 C 2.015625 -5.484375 1.484375 -5.3125 0.890625 -4.984375 L 0.96875 -4.203125 C 1.5 -4.578125 2.046875 -4.796875 2.734375 -4.796875 C 3.28125 -4.796875 3.765625 -4.34375 3.765625 -3.484375 L 3.765625 -2.984375 C 3.234375 -2.96875 2.515625 -2.921875 1.796875 -2.6875 C 0.984375 -2.421875 0.53125 -1.96875 0.53125 -1.375 C 0.53125 -0.84375 0.84375 0.125 1.859375 0.125 C 2.515625 0.125 3.34375 -0.078125 3.796875 -0.4375 L 3.796875 0 L 4.671875 0 Z M 3.765625 -1.609375 C 3.765625 -1.359375 3.765625 -1.078125 3.375 -0.84375 C 3.046875 -0.640625 2.640625 -0.59375 2.46875 -0.59375 C 1.8125 -0.59375 1.375 -0.9375 1.375 -1.390625 C 1.375 -2.203125 3.03125 -2.375 3.765625 -2.375 Z M 3.765625 -1.609375 "/>
</g>
<g id="glyph-2-5">
<path d="M 8.328125 -3.59375 C 8.328125 -4.421875 8.109375 -5.421875 6.71875 -5.421875 C 5.703125 -5.421875 5.140625 -4.71875 4.953125 -4.453125 C 4.75 -5.21875 4.09375 -5.421875 3.46875 -5.421875 C 2.484375 -5.421875 1.96875 -4.796875 1.765625 -4.546875 L 1.765625 -5.359375 L 0.921875 -5.359375 L 0.921875 0 L 1.828125 0 L 1.828125 -2.96875 C 1.828125 -3.765625 2.140625 -4.703125 3.015625 -4.703125 C 4.109375 -4.703125 4.171875 -3.953125 4.171875 -3.515625 L 4.171875 0 L 5.078125 0 L 5.078125 -2.96875 C 5.078125 -3.765625 5.390625 -4.703125 6.265625 -4.703125 C 7.359375 -4.703125 7.421875 -3.953125 7.421875 -3.515625 L 7.421875 0 L 8.328125 0 Z M 8.328125 -3.59375 "/>
</g>
<g id="glyph-2-6">
<path d="M 4.796875 -1.296875 C 4.25 -0.84375 3.640625 -0.625 2.96875 -0.625 C 1.96875 -0.625 1.328125 -1.5 1.328125 -2.671875 C 1.328125 -3.65625 1.8125 -4.75 3 -4.75 C 3.796875 -4.75 4.140625 -4.546875 4.65625 -4.203125 L 4.796875 -4.984375 C 4.09375 -5.390625 3.703125 -5.484375 3 -5.484375 C 1.34375 -5.484375 0.421875 -4.03125 0.421875 -2.671875 C 0.421875 -1.140625 1.515625 0.125 2.953125 0.125 C 3.53125 0.125 4.203125 -0.03125 4.859375 -0.5 C 4.859375 -0.53125 4.828125 -0.90625 4.8125 -0.953125 Z M 4.796875 -1.296875 "/>
</g>
<g id="glyph-2-7">
<path d="M 1.8125 -2.625 C 1.8125 -3.828125 2.71875 -4.609375 3.796875 -4.625 L 3.796875 -5.421875 C 2.71875 -5.421875 2.078125 -4.78125 1.75 -4.3125 L 1.75 -5.359375 L 0.9375 -5.359375 L 0.9375 0 L 1.8125 0 Z M 1.8125 -2.625 "/>
</g>
<g id="glyph-2-8">
<path d="M 2.046875 -4.609375 L 3.6875 -4.609375 L 3.6875 -5.3125 L 2.046875 -5.3125 L 2.046875 -6.828125 L 1.21875 -6.828125 L 1.21875 -5.3125 L 0.21875 -5.3125 L 0.21875 -4.609375 L 1.1875 -4.609375 L 1.1875 -1.40625 C 1.1875 -0.703125 1.34375 0.125 2.171875 0.125 C 2.96875 0.125 3.53125 -0.15625 3.890625 -0.34375 L 3.71875 -1.046875 C 3.296875 -0.671875 2.859375 -0.625 2.640625 -0.625 C 2.109375 -0.625 2.046875 -1.1875 2.046875 -1.609375 Z M 2.046875 -4.609375 "/>
</g>
<g id="glyph-2-9">
<path d="M 3.25 -3.265625 L 5.21875 -5.3125 L 4.109375 -5.3125 L 1.8125 -2.90625 L 1.8125 -8.296875 L 0.9375 -8.296875 L 0.9375 0 L 1.765625 0 L 1.765625 -1.71875 L 2.671875 -2.671875 L 4.5 0 L 5.46875 0 Z M 3.25 -3.265625 "/>
</g>
<g id="glyph-2-10">
<path d="M 5.171875 -5.3125 L 4.28125 -5.3125 C 3.734375 -3.890625 2.8125 -1.546875 2.765625 -0.6875 L 2.75 -0.6875 C 2.6875 -1.40625 2.0625 -2.96875 1.953125 -3.21875 L 1.109375 -5.3125 L 0.171875 -5.3125 L 2.390625 0 L 1.96875 1.09375 C 1.703125 1.6875 1.53125 1.75 1.3125 1.75 C 1.140625 1.75 0.765625 1.703125 0.390625 1.5625 L 0.46875 2.34375 C 0.53125 2.359375 0.9375 2.4375 1.3125 2.4375 C 1.609375 2.4375 2.15625 2.4375 2.671875 1.125 Z M 5.171875 -5.3125 "/>
</g>
<g id="glyph-2-11">
<path d="M 5.0625 -5.3125 L 4.15625 -5.3125 L 4.15625 -1.890625 C 4.15625 -0.984375 3.53125 -0.53125 2.75 -0.53125 C 1.90625 -0.53125 1.828125 -0.84375 1.828125 -1.375 L 1.828125 -5.3125 L 0.921875 -5.3125 L 0.921875 -1.328125 C 0.921875 -0.46875 1.1875 0.125 2.171875 0.125 C 2.515625 0.125 3.453125 0.0625 4.1875 -0.59375 L 4.1875 0 L 5.0625 0 Z M 5.0625 -5.3125 "/>
</g>
<g id="glyph-2-12">
<path d="M 1.8125 -8.296875 L 0.9375 -8.296875 L 0.9375 0 L 1.84375 0 L 1.84375 -0.53125 C 2.390625 -0.015625 2.96875 0.125 3.390625 0.125 C 4.53125 0.125 5.5625 -1.046875 5.5625 -2.671875 C 5.5625 -4.140625 4.78125 -5.421875 3.671875 -5.421875 C 3.328125 -5.421875 2.5625 -5.359375 1.8125 -4.75 Z M 1.84375 -4.03125 C 2.0625 -4.359375 2.484375 -4.703125 3.078125 -4.703125 C 3.796875 -4.703125 4.65625 -4.15625 4.65625 -2.671875 C 4.65625 -1.109375 3.6875 -0.59375 2.953125 -0.59375 C 2.625 -0.59375 2.390625 -0.71875 2.171875 -0.890625 C 1.890625 -1.140625 1.84375 -1.34375 1.84375 -1.546875 Z M 1.84375 -4.03125 "/>
</g>
<g id="glyph-2-13">
<path d="M 5.0625 -8.296875 L 4.171875 -8.296875 L 4.171875 -4.8125 C 3.625 -5.265625 3 -5.421875 2.484375 -5.421875 C 1.34375 -5.421875 0.421875 -4.203125 0.421875 -2.65625 C 0.421875 -1.109375 1.296875 0.125 2.4375 0.125 C 2.875 0.125 3.546875 -0.03125 4.140625 -0.609375 L 4.140625 0 L 5.0625 0 Z M 4.140625 -1.40625 C 3.859375 -0.890625 3.4375 -0.59375 2.921875 -0.59375 C 2.1875 -0.59375 1.328125 -1.15625 1.328125 -2.640625 C 1.328125 -4.234375 2.34375 -4.703125 3.03125 -4.703125 C 3.5 -4.703125 3.890625 -4.46875 4.140625 -4.078125 Z M 4.140625 -1.40625 "/>
</g>
<g id="glyph-2-14">
<path d="M 2.0625 -4.609375 L 3.34375 -4.609375 L 3.34375 -5.3125 L 2.046875 -5.3125 L 2.046875 -6.734375 C 2.046875 -7.546875 2.71875 -7.703125 3.125 -7.703125 C 3.53125 -7.703125 3.90625 -7.5625 4.046875 -7.5 L 4.046875 -8.296875 C 3.96875 -8.3125 3.578125 -8.421875 3.125 -8.421875 C 2 -8.421875 1.1875 -7.546875 1.1875 -6.390625 L 1.1875 -5.3125 L 0.3125 -5.3125 L 0.3125 -4.609375 L 1.1875 -4.609375 L 1.1875 0 L 2.0625 0 Z M 2.0625 -4.609375 "/>
</g>
<g id="glyph-2-15">
<path d="M 5.484375 -2.625 C 5.484375 -4.25 4.296875 -5.484375 2.921875 -5.484375 C 1.515625 -5.484375 0.359375 -4.21875 0.359375 -2.625 C 0.359375 -1.0625 1.546875 0.125 2.921875 0.125 C 4.328125 0.125 5.484375 -1.09375 5.484375 -2.625 Z M 2.921875 -0.625 C 2.0625 -0.625 1.265625 -1.34375 1.265625 -2.75 C 1.265625 -4.203125 2.15625 -4.765625 2.921875 -4.765625 C 3.734375 -4.765625 4.578125 -4.140625 4.578125 -2.75 C 4.578125 -1.28125 3.734375 -0.625 2.921875 -0.625 Z M 2.921875 -0.625 "/>
</g>
<g id="glyph-2-16">
<path d="M 5.0625 -3.59375 C 5.0625 -4.328125 4.90625 -5.421875 3.46875 -5.421875 C 2.796875 -5.421875 2.21875 -5.125 1.765625 -4.546875 L 1.765625 -5.359375 L 0.921875 -5.359375 L 0.921875 0 L 1.828125 0 L 1.828125 -2.96875 C 1.828125 -3.71875 2.109375 -4.703125 3.015625 -4.703125 C 4.125 -4.703125 4.15625 -3.9375 4.15625 -3.515625 L 4.15625 0 L 5.0625 0 Z M 5.0625 -3.59375 "/>
</g>
<g id="glyph-2-17">
<path d="M 1.84375 -0.53125 C 2.25 -0.171875 2.75 0.125 3.390625 0.125 C 4.546875 0.125 5.5625 -1.046875 5.5625 -2.671875 C 5.5625 -4.109375 4.8125 -5.421875 3.6875 -5.421875 C 3.203125 -5.421875 2.4375 -5.265625 1.8125 -4.75 L 1.8125 -5.3125 L 0.9375 -5.3125 L 0.9375 2.3125 L 1.84375 2.3125 Z M 1.84375 -4.015625 C 2.109375 -4.421875 2.5625 -4.6875 3.0625 -4.6875 C 3.9375 -4.6875 4.65625 -3.796875 4.65625 -2.65625 C 4.65625 -1.453125 3.84375 -0.59375 2.953125 -0.59375 C 2.625 -0.59375 2.390625 -0.71875 2.171875 -0.890625 C 1.875 -1.140625 1.84375 -1.359375 1.84375 -1.546875 Z M 1.84375 -4.015625 "/>
</g>
<g id="glyph-2-18">
<path d="M 1.890625 -8.109375 L 0.859375 -8.109375 L 0.859375 -7.09375 L 1.890625 -7.09375 Z M 1.8125 -5.3125 L 0.9375 -5.3125 L 0.9375 0 L 1.8125 0 Z M 1.8125 -5.3125 "/>
</g>
<g id="glyph-2-19">
<path d="M 2.109375 -0.96875 L 1.140625 -0.96875 L 1.140625 0 L 2.109375 0 Z M 2.109375 -0.96875 "/>
</g>
<g id="glyph-2-20">
<path d="M 6.890625 -8.296875 L 5.96875 -8.296875 L 5.96875 -2.765625 C 5.96875 -1.171875 4.96875 -0.421875 4.015625 -0.421875 C 3.078125 -0.421875 2.109375 -1.15625 2.109375 -2.765625 L 2.109375 -8.296875 L 1.078125 -8.296875 L 1.078125 -2.78125 C 1.078125 -1.03125 2.453125 0.25 4 0.25 C 5.5625 0.25 6.890625 -1.046875 6.890625 -2.78125 Z M 6.890625 -8.296875 "/>
</g>
<g id="glyph-2-21">
<path d="M 2.5 -8.296875 L 1.140625 -8.296875 L 1.140625 0 L 2.0625 0 L 2.0625 -7.375 C 2.234375 -6.5625 4.171875 -1.453125 4.625 -0.25 L 5.5 -0.25 C 5.890625 -1.28125 7.859375 -6.484375 8.078125 -7.390625 L 8.09375 -7.390625 L 8.09375 0 L 9.015625 0 L 9.015625 -8.296875 L 7.65625 -8.296875 L 6.28125 -4.609375 C 5.671875 -2.9375 5.203125 -1.6875 5.078125 -1.140625 L 5.0625 -1.140625 C 5.03125 -1.34375 4.875 -1.78125 4.71875 -2.25 C 4.5 -2.890625 4.5 -2.921875 4.3125 -3.40625 Z M 2.5 -8.296875 "/>
</g>
<g id="glyph-2-22">
<path d="M 2.109375 -8.296875 L 1.078125 -8.296875 L 1.078125 0 L 2.109375 0 Z M 2.109375 -8.296875 "/>
</g>
<g id="glyph-2-23">
<path d="M 5.96875 -3.9375 L 5.96875 -4.65625 L 2.109375 -4.65625 L 2.109375 -7.53125 L 3.734375 -7.53125 C 3.875 -7.53125 4.015625 -7.515625 4.15625 -7.515625 L 6.3125 -7.515625 L 6.3125 -8.265625 L 1.078125 -8.265625 L 1.078125 0 L 6.46875 0 L 6.46875 -0.8125 L 4.90625 -0.8125 C 4.75 -0.8125 4.609375 -0.796875 4.46875 -0.796875 L 2.109375 -0.796875 L 2.109375 -3.9375 Z M 5.96875 -3.9375 "/>
</g>
<g id="glyph-2-24">
<path d="M 5.171875 -5.3125 L 4.28125 -5.3125 L 3.40625 -2.921875 C 3.203125 -2.359375 2.765625 -1.09375 2.6875 -0.640625 L 2.671875 -0.640625 C 2.625 -1.0625 2.375 -1.71875 2.203125 -2.234375 L 1.09375 -5.3125 L 0.171875 -5.3125 L 2.140625 0 L 3.203125 0 Z M 5.171875 -5.3125 "/>
</g>
<g id="glyph-2-25">
<path d="M 2.109375 -0.015625 L 2.109375 -0.96875 L 1.140625 -0.96875 L 1.140625 0 L 1.4375 0 L 1.140625 1.5 L 1.609375 1.5 Z M 2.109375 -0.015625 "/>
</g>
<g id="glyph-2-26">
<path d="M 3.03125 -2.734375 L 5.15625 -5.3125 L 4.140625 -5.3125 L 2.640625 -3.375 L 1.078125 -5.3125 L 0.0625 -5.3125 L 2.234375 -2.734375 L 0 0 L 0.984375 0 L 2.640625 -2.21875 L 4.34375 0 L 5.34375 0 Z M 3.03125 -2.734375 "/>
</g>
<g id="glyph-2-27">
<path d="M 2.109375 -5.3125 L 1.140625 -5.3125 L 1.140625 -4.34375 L 2.109375 -4.34375 Z M 1.140625 -0.96875 L 1.140625 0 L 2.109375 0 L 2.109375 -0.96875 Z M 1.140625 -0.96875 "/>
</g>
<g id="glyph-2-28">
<path d="M 4.390625 -8.296875 L 3.328125 -8.296875 L 0.328125 0 L 1.203125 0 L 2.078125 -2.421875 L 5.453125 -2.421875 L 6.328125 0 L 7.40625 0 Z M 3.765625 -7.4375 L 5.203125 -3.09375 L 2.34375 -3.09375 Z M 3.765625 -7.4375 "/>
</g>
<g id="glyph-3-0">
<path d="M 5.671875 -7.78125 C 5.484375 -8.296875 5.140625 -8.296875 4.90625 -8.296875 L 3.84375 -8.296875 C 3.609375 -8.296875 3.265625 -8.296875 3.078125 -7.78125 L 0.5625 -0.5625 C 0.5 -0.40625 0.5 -0.375 0.5 -0.328125 C 0.5 0 0.796875 0 0.96875 0 L 1.40625 0 C 1.609375 0 1.984375 0 2.15625 -0.484375 L 2.625 -1.8125 L 5.921875 -1.8125 L 6.328125 -0.65625 C 6.484375 -0.234375 6.5625 0 7.140625 0 L 7.78125 0 C 7.953125 0 8.25 0 8.25 -0.328125 C 8.25 -0.375 8.25 -0.40625 8.1875 -0.5625 Z M 3.84375 -5.359375 C 4.015625 -5.890625 4.171875 -6.34375 4.265625 -6.78125 L 4.28125 -6.78125 C 4.34375 -6.484375 4.34375 -6.46875 4.4375 -6.1875 L 5.5625 -2.828125 L 2.96875 -2.828125 Z M 3.84375 -5.359375 "/>
</g>
<g id="glyph-3-1">
<path d="M 2.3125 -7.71875 C 2.3125 -8.109375 2.234375 -8.296875 1.75 -8.296875 L 1.296875 -8.296875 C 0.875 -8.296875 0.734375 -8.15625 0.734375 -7.71875 L 0.734375 -0.578125 C 0.734375 -0.140625 0.859375 0 1.296875 0 L 1.75 0 C 2.203125 0 2.3125 -0.15625 2.3125 -0.578125 Z M 2.3125 -7.71875 "/>
</g>
<g id="glyph-3-2">
<path d="M 1.21875 -8.3125 C 0.84375 -8.3125 0.640625 -8.234375 0.640625 -7.75 L 0.640625 -7.203125 C 0.640625 -6.828125 0.765625 -6.671875 1.203125 -6.671875 L 1.828125 -6.671875 C 2.40625 -6.671875 2.40625 -6.921875 2.40625 -7.484375 C 2.40625 -8.0625 2.40625 -8.3125 1.828125 -8.3125 Z M 2.3125 -4.90625 C 2.3125 -5.28125 2.234375 -5.46875 1.75 -5.46875 L 1.296875 -5.46875 C 0.875 -5.46875 0.734375 -5.34375 0.734375 -4.90625 L 0.734375 -0.578125 C 0.734375 -0.140625 0.859375 0 1.296875 0 L 1.75 0 C 2.203125 0 2.3125 -0.15625 2.3125 -0.578125 Z M 2.3125 -4.90625 "/>
</g>
<g id="glyph-3-3">
<path d="M 5.46875 -0.59375 C 5.46875 -0.734375 5.421875 -1.28125 5.390625 -1.4375 C 5.390625 -1.46875 5.359375 -1.59375 5.25 -1.59375 C 5.203125 -1.59375 5.171875 -1.59375 5.0625 -1.46875 C 4.859375 -1.296875 4.296875 -0.796875 3.3125 -0.796875 C 2.0625 -0.796875 2.0625 -2.015625 2.0625 -2.765625 C 2.0625 -3.734375 2.125 -4.75 3.34375 -4.75 C 4.125 -4.75 4.453125 -4.546875 4.875 -4.203125 C 5.015625 -4.0625 5.046875 -4.0625 5.09375 -4.0625 C 5.21875 -4.0625 5.234375 -4.171875 5.25 -4.21875 C 5.265625 -4.3125 5.390625 -4.984375 5.390625 -5.046875 C 5.390625 -5.15625 5.3125 -5.203125 5.109375 -5.296875 C 4.53125 -5.5625 4.171875 -5.671875 3.328125 -5.671875 C 1.546875 -5.671875 0.4375 -4.84375 0.4375 -2.75 C 0.4375 -0.765625 1.46875 0.125 3.28125 0.125 C 3.59375 0.125 4.3125 0.125 5.109375 -0.28125 C 5.453125 -0.46875 5.46875 -0.484375 5.46875 -0.59375 Z M 5.46875 -0.59375 "/>
</g>
<g id="glyph-3-4">
<path d="M 5.15625 -2.5625 C 5.421875 -2.5625 5.71875 -2.5625 5.71875 -3.109375 C 5.71875 -4.65625 5.015625 -5.671875 3.234375 -5.671875 C 1.3125 -5.671875 0.375 -4.609375 0.375 -2.78125 C 0.375 -0.828125 1.5 0.125 3.375 0.125 C 3.84375 0.125 4.515625 0.078125 5.3125 -0.328125 C 5.5625 -0.453125 5.65625 -0.484375 5.65625 -0.640625 C 5.65625 -0.71875 5.625 -1.0625 5.609375 -1.15625 C 5.5625 -1.53125 5.546875 -1.546875 5.4375 -1.546875 C 5.390625 -1.546875 5.359375 -1.546875 5.234375 -1.421875 C 4.53125 -0.8125 3.8125 -0.734375 3.4375 -0.734375 C 2.078125 -0.734375 1.9375 -1.796875 1.90625 -2.5625 Z M 1.90625 -3.1875 C 1.953125 -3.921875 2.1875 -4.8125 3.234375 -4.8125 C 4.1875 -4.8125 4.359375 -4.125 4.40625 -3.1875 Z M 1.90625 -3.1875 "/>
</g>
<g id="glyph-3-5">
<path d="M 5.03125 -4.84375 L 8.171875 -7.796875 C 8.3125 -7.921875 8.3125 -8 8.3125 -8.046875 C 8.3125 -8.296875 8.078125 -8.296875 7.90625 -8.296875 L 7.1875 -8.296875 C 6.984375 -8.296875 6.734375 -8.296875 6.484375 -8.0625 L 2.640625 -4.421875 L 2.640625 -7.71875 C 2.640625 -8.109375 2.5625 -8.296875 2.0625 -8.296875 L 1.65625 -8.296875 C 1.234375 -8.296875 1.09375 -8.15625 1.09375 -7.71875 L 1.09375 -0.578125 C 1.09375 -0.140625 1.21875 0 1.65625 0 L 2.0625 0 C 2.515625 0 2.640625 -0.15625 2.640625 -0.578125 L 2.640625 -2.578125 L 3.96875 -3.84375 L 6.640625 -0.25 C 6.84375 0 7.015625 0 7.25 0 L 7.953125 0 C 8.21875 0 8.375 0 8.375 -0.34375 Z M 5.03125 -4.84375 "/>
</g>
<g id="glyph-3-6">
<path d="M 5.59375 -4.90625 C 5.65625 -5.0625 5.65625 -5.09375 5.65625 -5.15625 C 5.65625 -5.46875 5.328125 -5.46875 5.171875 -5.46875 L 4.90625 -5.46875 C 4.71875 -5.46875 4.453125 -5.46875 4.28125 -5.203125 C 4.25 -5.140625 3.28125 -2.5 3.21875 -1.703125 L 3.203125 -1.703125 C 3.140625 -2.28125 2.65625 -3.390625 2.140625 -4.546875 C 1.8125 -5.296875 1.71875 -5.46875 1.125 -5.46875 L 0.8125 -5.46875 C 0.640625 -5.46875 0.34375 -5.46875 0.34375 -5.15625 C 0.34375 -5.109375 0.375 -5.03125 0.40625 -4.96875 L 2.671875 0 C 2.5625 0.25 2.53125 0.375 2.5 0.5 C 2.359375 0.890625 2.15625 1.4375 1.5 1.4375 C 1.109375 1.4375 0.84375 1.265625 0.703125 1.1875 C 0.640625 1.140625 0.625 1.140625 0.578125 1.140625 C 0.53125 1.140625 0.4375 1.171875 0.4375 1.3125 C 0.4375 1.40625 0.5 2.234375 0.53125 2.28125 C 0.640625 2.421875 1.296875 2.453125 1.484375 2.453125 C 2.96875 2.453125 3.546875 1.046875 3.640625 0.75 Z M 5.59375 -4.90625 "/>
</g>
<g id="glyph-3-7">
<path d="M 1.65625 -8.296875 C 1.234375 -8.296875 1.09375 -8.15625 1.09375 -7.71875 L 1.09375 -0.578125 C 1.09375 -0.140625 1.21875 0 1.65625 0 L 4.8125 0 C 7.734375 0 8.75 -1.75 8.75 -4.09375 C 8.75 -5.03125 8.59375 -6.1875 7.921875 -7.046875 C 7.03125 -8.15625 5.59375 -8.296875 4.8125 -8.296875 Z M 2.8125 -1.03125 L 2.8125 -7.265625 L 4.34375 -7.265625 C 6.921875 -7.265625 7.03125 -5.421875 7.03125 -4.09375 C 7.03125 -2.734375 6.890625 -1.03125 4.34375 -1.03125 Z M 2.8125 -1.03125 "/>
</g>
<g id="glyph-3-8">
<path d="M 4.734375 -1.6875 C 4.734375 -2.359375 4.375 -2.765625 4.15625 -2.96875 C 3.6875 -3.390625 3.265625 -3.46875 2.765625 -3.5625 C 2.109375 -3.6875 1.625 -3.78125 1.625 -4.25 C 1.625 -4.734375 2.015625 -4.828125 2.484375 -4.828125 C 3.28125 -4.828125 3.71875 -4.53125 4.03125 -4.265625 C 4.140625 -4.140625 4.171875 -4.140625 4.21875 -4.140625 C 4.34375 -4.140625 4.359375 -4.25 4.375 -4.296875 C 4.40625 -4.40625 4.515625 -5.0625 4.515625 -5.125 C 4.515625 -5.3125 3.890625 -5.484375 3.75 -5.53125 C 3.28125 -5.671875 2.890625 -5.671875 2.578125 -5.671875 C 2.046875 -5.671875 0.4375 -5.671875 0.4375 -3.96875 C 0.4375 -3.375 0.703125 -3.03125 1.03125 -2.734375 C 1.453125 -2.359375 1.90625 -2.265625 2.59375 -2.140625 C 2.9375 -2.078125 3.546875 -1.96875 3.546875 -1.453125 C 3.546875 -0.890625 3.078125 -0.796875 2.625 -0.796875 C 2.09375 -0.796875 1.421875 -0.953125 0.859375 -1.625 C 0.796875 -1.6875 0.765625 -1.71875 0.6875 -1.71875 C 0.578125 -1.71875 0.546875 -1.609375 0.53125 -1.546875 C 0.515625 -1.375 0.375 -0.6875 0.375 -0.578125 C 0.375 -0.359375 1.25 -0.078125 1.265625 -0.078125 C 1.921875 0.125 2.421875 0.125 2.625 0.125 C 3.234375 0.125 4.734375 0.078125 4.734375 -1.6875 Z M 4.734375 -1.6875 "/>
</g>
<g id="glyph-3-9">
<path d="M 2.609375 -4.609375 L 3.671875 -4.609375 C 3.8125 -4.609375 4.25 -4.609375 4.25 -5.046875 C 4.25 -5.46875 3.8125 -5.46875 3.671875 -5.46875 L 2.609375 -5.46875 L 2.609375 -6.46875 C 2.609375 -6.84375 2.515625 -7.046875 2.03125 -7.046875 L 1.65625 -7.046875 C 1.234375 -7.046875 1.09375 -6.90625 1.09375 -6.46875 L 1.09375 -5.46875 L 0.8125 -5.46875 C 0.6875 -5.46875 0.234375 -5.46875 0.234375 -5.046875 C 0.234375 -4.609375 0.671875 -4.609375 0.8125 -4.609375 L 1.046875 -4.609375 L 1.046875 -1.59375 C 1.046875 -0.375 1.484375 0.125 2.3125 0.125 C 2.421875 0.125 2.9375 0.125 3.5625 -0.0625 C 3.765625 -0.125 4.453125 -0.328125 4.453125 -0.5625 C 4.453125 -0.59375 4.4375 -0.6875 4.359375 -0.9375 C 4.296875 -1.171875 4.28125 -1.25 4.171875 -1.25 C 4.109375 -1.25 4.09375 -1.234375 4.03125 -1.15625 C 3.890625 -1.0625 3.578125 -0.796875 3.078125 -0.796875 C 2.78125 -0.796875 2.609375 -1 2.609375 -1.796875 Z M 2.609375 -4.609375 "/>
</g>
<g id="glyph-3-10">
<path d="M 2.3125 -2.75 C 2.3125 -3.890625 3.265625 -4.34375 4.015625 -4.40625 C 4.234375 -4.40625 4.25 -4.40625 4.25 -4.71875 L 4.25 -5.28125 C 4.25 -5.515625 4.25 -5.609375 4.046875 -5.609375 C 3.703125 -5.609375 2.828125 -5.484375 2.265625 -4.203125 L 2.265625 -4.96875 C 2.265625 -5.359375 2.171875 -5.546875 1.6875 -5.546875 L 1.296875 -5.546875 C 0.875 -5.546875 0.734375 -5.421875 0.734375 -4.96875 L 0.734375 -0.578125 C 0.734375 -0.140625 0.859375 0 1.296875 0 L 1.75 0 C 2.203125 0 2.3125 -0.15625 2.3125 -0.578125 Z M 2.3125 -2.75 "/>
</g>
<g id="glyph-3-11">
<path d="M 2.3125 -7.71875 C 2.3125 -8.109375 2.234375 -8.296875 1.75 -8.296875 L 1.296875 -8.296875 C 0.875 -8.296875 0.734375 -8.15625 0.734375 -7.71875 L 0.734375 -0.578125 C 0.734375 -0.140625 0.859375 0 1.296875 0 L 1.78125 0 C 1.984375 0 2.34375 0 2.359375 -0.46875 C 2.90625 0.125 3.515625 0.125 3.703125 0.125 C 6.25 0.125 6.25 -2.15625 6.25 -2.765625 C 6.25 -3.328125 6.25 -5.609375 4 -5.609375 C 3.03125 -5.609375 2.421875 -5.0625 2.3125 -4.9375 Z M 2.359375 -4.328125 C 2.515625 -4.46875 2.875 -4.75 3.421875 -4.75 C 4.625 -4.75 4.625 -3.640625 4.625 -2.75 C 4.625 -1.859375 4.625 -0.734375 3.28125 -0.734375 C 2.78125 -0.734375 2.484375 -1.03125 2.359375 -1.1875 Z M 2.359375 -4.328125 "/>
</g>
<g id="glyph-3-12">
<path d="M 5.96875 -4.90625 C 5.96875 -5.28125 5.890625 -5.46875 5.40625 -5.46875 L 4.921875 -5.46875 C 4.46875 -5.46875 4.34375 -5.3125 4.34375 -4.90625 L 4.34375 -2.0625 C 4.34375 -1.28125 3.9375 -0.59375 3.078125 -0.59375 C 2.421875 -0.59375 2.34375 -0.765625 2.34375 -1.40625 L 2.34375 -4.90625 C 2.34375 -5.28125 2.265625 -5.46875 1.765625 -5.46875 L 1.296875 -5.46875 C 0.859375 -5.46875 0.71875 -5.34375 0.71875 -4.90625 L 0.71875 -1.5 C 0.71875 -0.234375 1.40625 0.125 2.65625 0.125 C 2.96875 0.125 3.828125 0.125 4.390625 -0.890625 L 4.390625 -0.578125 C 4.390625 -0.1875 4.46875 0 4.953125 0 L 5.40625 0 C 5.859375 0 5.96875 -0.15625 5.96875 -0.578125 Z M 5.96875 -4.90625 "/>
</g>
<g id="glyph-3-13">
<path d="M 6.1875 -2.6875 C 6.1875 -4.65625 5.234375 -5.671875 3.28125 -5.671875 C 1.296875 -5.671875 0.375 -4.609375 0.375 -2.6875 C 0.375 -0.734375 1.40625 0.125 3.28125 0.125 C 5.15625 0.125 6.1875 -0.734375 6.1875 -2.6875 Z M 3.28125 -0.796875 C 2 -0.796875 2 -1.875 2 -2.828125 C 2 -3.75 2 -4.8125 3.28125 -4.8125 C 4.5625 -4.8125 4.5625 -3.765625 4.5625 -2.828125 C 4.5625 -1.890625 4.5625 -0.796875 3.28125 -0.796875 Z M 3.28125 -0.796875 "/>
</g>
<g id="glyph-3-14">
<path d="M 5.96875 -3.890625 C 5.96875 -5.109375 5.453125 -5.609375 4.234375 -5.609375 C 2.96875 -5.609375 2.4375 -4.703125 2.28125 -4.375 L 2.265625 -4.375 L 2.265625 -4.96875 C 2.265625 -5.359375 2.1875 -5.546875 1.703125 -5.546875 L 1.296875 -5.546875 C 0.859375 -5.546875 0.71875 -5.421875 0.71875 -4.96875 L 0.71875 -0.578125 C 0.71875 -0.140625 0.84375 0 1.296875 0 L 1.765625 0 C 2.21875 0 2.34375 -0.15625 2.34375 -0.578125 L 2.34375 -3.21875 C 2.34375 -4.25 3.03125 -4.75 3.65625 -4.75 C 4.234375 -4.75 4.34375 -4.46875 4.34375 -3.859375 L 4.34375 -0.578125 C 4.34375 -0.1875 4.4375 0 4.921875 0 L 5.40625 0 C 5.859375 0 5.96875 -0.15625 5.96875 -0.578125 Z M 5.96875 -3.890625 "/>
</g>
<g id="glyph-3-15">
<path d="M 7.65625 -1.703125 C 7.65625 -1.8125 7.5625 -1.859375 7.515625 -1.859375 C 7.234375 -1.859375 6.890625 -1.078125 5.203125 -1.078125 C 3.09375 -1.078125 2.5 -2.359375 2.5 -4.15625 C 2.5 -5.9375 3.140625 -7.234375 5.109375 -7.234375 C 6.171875 -7.234375 6.734375 -6.8125 7.046875 -6.546875 C 7.125 -6.484375 7.15625 -6.4375 7.25 -6.4375 C 7.296875 -6.4375 7.34375 -6.5 7.359375 -6.546875 L 7.609375 -7.875 C 7.609375 -7.921875 7.609375 -7.96875 7.5 -8.015625 C 6.796875 -8.265625 6.078125 -8.4375 5.140625 -8.4375 C 2.21875 -8.4375 0.734375 -7.015625 0.734375 -4.171875 C 0.734375 -1.25 2.25 0.125 5.15625 0.125 C 6.171875 0.125 6.796875 -0.03125 7.671875 -0.5625 C 7.765625 -0.625 7.75 -0.703125 7.75 -0.703125 Z M 7.65625 -1.703125 "/>
</g>
<g id="glyph-3-16">
<path d="M 5.96875 -3.890625 C 5.96875 -5.109375 5.453125 -5.609375 4.234375 -5.609375 C 3.03125 -5.609375 2.484375 -4.78125 2.3125 -4.453125 L 2.3125 -7.71875 C 2.3125 -8.109375 2.21875 -8.296875 1.734375 -8.296875 L 1.296875 -8.296875 C 0.859375 -8.296875 0.71875 -8.15625 0.71875 -7.71875 L 0.71875 -0.578125 C 0.71875 -0.140625 0.84375 0 1.296875 0 L 1.765625 0 C 2.21875 0 2.34375 -0.15625 2.34375 -0.578125 L 2.34375 -3.21875 C 2.34375 -4.25 3.03125 -4.75 3.65625 -4.75 C 4.234375 -4.75 4.34375 -4.46875 4.34375 -3.859375 L 4.34375 -0.578125 C 4.34375 -0.1875 4.4375 0 4.921875 0 L 5.40625 0 C 5.859375 0 5.96875 -0.15625 5.96875 -0.578125 Z M 5.96875 -3.890625 "/>
</g>
<g id="glyph-3-17">
<path d="M 5.546875 -3.78125 C 5.546875 -5.671875 3.734375 -5.671875 3.125 -5.671875 C 2.5625 -5.671875 1.96875 -5.625 1.171875 -5.296875 C 0.921875 -5.1875 0.859375 -5.15625 0.859375 -5.015625 C 0.859375 -4.9375 0.9375 -4.25 0.9375 -4.140625 C 0.953125 -4.078125 1.015625 -4.015625 1.09375 -4.015625 C 1.15625 -4.015625 1.1875 -4.046875 1.234375 -4.09375 C 1.75 -4.625 2.34375 -4.890625 3.078125 -4.890625 C 3.734375 -4.890625 3.921875 -4.5 3.921875 -3.796875 L 3.921875 -3.375 C 3.5 -3.375 0.375 -3.34375 0.375 -1.59375 C 0.375 -0.75 1.046875 0.125 2.09375 0.125 C 2.5 0.125 3.390625 0.015625 3.953125 -0.8125 L 3.953125 -0.578125 C 3.953125 -0.1875 4.046875 0 4.53125 0 L 4.96875 0 C 5.421875 0 5.546875 -0.15625 5.546875 -0.578125 Z M 3.921875 -1.84375 C 3.921875 -0.734375 2.78125 -0.734375 2.75 -0.734375 C 2.25 -0.734375 1.921875 -1.15625 1.921875 -1.609375 C 1.921875 -2.78125 3.578125 -2.875 3.921875 -2.875 Z M 3.921875 -1.84375 "/>
</g>
<g id="glyph-3-18">
<path d="M 1.65625 -8.296875 C 1.234375 -8.296875 1.09375 -8.15625 1.09375 -7.71875 L 1.09375 -0.578125 C 1.09375 -0.140625 1.21875 0 1.65625 0 L 4.9375 0 C 5.828125 0 8.015625 -0.15625 8.015625 -2.3125 C 8.015625 -4 6.359375 -4.265625 5.921875 -4.34375 C 7.015625 -4.59375 7.65625 -5.21875 7.65625 -6.140625 C 7.65625 -8.296875 5.109375 -8.296875 4.609375 -8.296875 Z M 2.765625 -4.75 L 2.765625 -7.265625 L 4.171875 -7.265625 C 4.640625 -7.265625 6.03125 -7.234375 6.03125 -6.109375 C 6.03125 -4.75 4.453125 -4.75 4.15625 -4.75 Z M 2.765625 -1.03125 L 2.765625 -3.890625 L 4.28125 -3.890625 C 4.703125 -3.890625 6.359375 -3.890625 6.359375 -2.34375 C 6.359375 -1.109375 5.078125 -1.03125 4.5 -1.03125 Z M 2.765625 -1.03125 "/>
</g>
<g id="glyph-3-19">
<path d="M 2.84375 -3.71875 L 5.984375 -3.71875 C 6.359375 -3.71875 6.5625 -3.796875 6.5625 -4.28125 C 6.5625 -4.71875 6.40625 -4.84375 5.984375 -4.84375 L 2.84375 -4.84375 L 2.84375 -7.046875 L 3.4375 -7.046875 C 4.359375 -7.046875 5.3125 -7.015625 6.234375 -7.015625 C 6.65625 -7.015625 6.9375 -7.015625 6.9375 -7.59375 L 6.9375 -7.6875 C 6.9375 -8.0625 6.84375 -8.265625 6.359375 -8.265625 L 1.65625 -8.265625 C 1.234375 -8.265625 1.09375 -8.125 1.09375 -7.6875 L 1.09375 -0.578125 C 1.09375 -0.140625 1.21875 0 1.65625 0 L 6.53125 0 C 7 0 7.109375 -0.15625 7.109375 -0.578125 L 7.109375 -0.734375 C 7.109375 -1.3125 6.84375 -1.3125 6.4375 -1.3125 C 5.828125 -1.3125 5.21875 -1.296875 4.59375 -1.296875 C 4.296875 -1.296875 3.0625 -1.28125 2.84375 -1.265625 Z M 2.84375 -3.71875 "/>
</g>
<g id="glyph-3-20">
<path d="M 5.59375 -4.90625 C 5.65625 -5.078125 5.65625 -5.109375 5.65625 -5.140625 C 5.65625 -5.46875 5.359375 -5.46875 5.171875 -5.46875 L 4.921875 -5.46875 C 4.421875 -5.46875 4.296875 -5.296875 4.1875 -4.953125 L 3 -1.34375 L 1.8125 -4.953125 C 1.734375 -5.21875 1.65625 -5.46875 1.078125 -5.46875 L 0.78125 -5.46875 C 0.609375 -5.46875 0.3125 -5.46875 0.3125 -5.140625 C 0.3125 -5.109375 0.3125 -5.078125 0.375 -4.90625 L 1.796875 -0.5 C 1.953125 0 2.328125 0 2.546875 0 L 3.421875 0 C 3.640625 0 4 0 4.171875 -0.5 Z M 5.59375 -4.90625 "/>
</g>
<g id="glyph-3-21">
<path d="M 3.84375 -8.96875 C 3.625 -8.96875 3.59375 -8.96875 3.375 -8.78125 C 1.953125 -7.5625 1.03125 -5.515625 1.03125 -2.984375 C 1.03125 -1.546875 1.328125 0.953125 3.328125 2.765625 C 3.578125 2.984375 3.59375 2.984375 3.84375 2.984375 L 4.046875 2.984375 C 4.25 2.984375 4.375 2.984375 4.375 2.828125 C 4.375 2.796875 4.375 2.765625 4.234375 2.625 C 3.484375 1.703125 2.65625 0.234375 2.65625 -2.984375 C 2.65625 -6.5 3.640625 -7.890625 4.296875 -8.671875 C 4.34375 -8.734375 4.375 -8.765625 4.375 -8.8125 C 4.375 -8.96875 4.25 -8.96875 4.046875 -8.96875 Z M 3.84375 -8.96875 "/>
</g>
<g id="glyph-3-22">
<path d="M 3.734375 -3.25 L 5.578125 -4.953125 C 5.71875 -5.09375 5.765625 -5.125 5.765625 -5.21875 C 5.765625 -5.46875 5.515625 -5.46875 5.359375 -5.46875 L 4.65625 -5.46875 C 4.453125 -5.46875 4.21875 -5.46875 3.9375 -5.21875 L 2.21875 -3.625 L 2.21875 -7.71875 C 2.21875 -8.109375 2.140625 -8.296875 1.65625 -8.296875 L 1.40625 -8.296875 C 0.96875 -8.296875 0.828125 -8.15625 0.828125 -7.71875 L 0.828125 -0.578125 C 0.828125 -0.140625 0.953125 0 1.40625 0 L 1.609375 0 C 2.0625 0 2.1875 -0.15625 2.1875 -0.578125 L 2.1875 -1.8125 L 2.75 -2.328125 L 4.296875 -0.296875 C 4.5 -0.03125 4.59375 0 4.9375 0 L 5.515625 0 C 5.671875 0 5.9375 0 5.9375 -0.265625 C 5.9375 -0.28125 5.9375 -0.375 5.828125 -0.53125 Z M 3.734375 -3.25 "/>
</g>
<g id="glyph-3-23">
<path d="M 1.046875 -8.96875 C 0.859375 -8.96875 0.734375 -8.96875 0.734375 -8.8125 C 0.734375 -8.78125 0.734375 -8.75 0.875 -8.59375 C 1.609375 -7.671875 2.453125 -6.203125 2.453125 -2.984375 C 2.453125 0.515625 1.453125 1.90625 0.796875 2.703125 C 0.734375 2.78125 0.734375 2.8125 0.734375 2.828125 C 0.734375 2.984375 0.859375 2.984375 1.046875 2.984375 L 1.265625 2.984375 C 1.484375 2.984375 1.5 2.984375 1.71875 2.796875 C 3.15625 1.59375 4.078125 -0.453125 4.078125 -2.984375 C 4.078125 -4.4375 3.78125 -6.9375 1.78125 -8.734375 C 1.53125 -8.96875 1.5 -8.96875 1.265625 -8.96875 Z M 1.046875 -8.96875 "/>
</g>
<g id="glyph-3-24">
<path d="M 3.234375 -5.265625 C 2.96875 -5.328125 2.21875 -5.609375 2.21875 -6.28125 C 2.21875 -7.296875 3.234375 -7.328125 3.640625 -7.328125 C 4.3125 -7.328125 4.90625 -7.171875 5.5 -6.59375 C 5.6875 -6.421875 5.703125 -6.40625 5.75 -6.40625 C 5.828125 -6.40625 5.875 -6.4375 5.921875 -6.625 L 6.09375 -7.65625 C 6.125 -7.75 6.125 -7.78125 6.125 -7.8125 C 6.125 -7.90625 6.109375 -7.921875 5.8125 -8.078125 C 4.953125 -8.5 4.25 -8.5625 3.640625 -8.5625 C 2.578125 -8.5625 0.734375 -8.3125 0.734375 -6.078125 C 0.734375 -5.21875 1.171875 -4.671875 1.40625 -4.4375 C 2.015625 -3.8125 2.5625 -3.6875 3.5 -3.484375 C 4.171875 -3.328125 4.4375 -3.265625 4.703125 -3.03125 C 4.8125 -2.90625 5.0625 -2.65625 5.0625 -2.203125 C 5.0625 -1.078125 4.046875 -1.046875 3.640625 -1.046875 C 2.640625 -1.046875 1.765625 -1.453125 1.171875 -1.984375 C 1.03125 -2.125 1 -2.125 0.953125 -2.125 C 0.890625 -2.125 0.828125 -2.09375 0.78125 -1.90625 L 0.609375 -0.875 C 0.578125 -0.78125 0.578125 -0.75 0.578125 -0.71875 C 0.578125 -0.46875 1.828125 -0.03125 1.890625 -0.015625 C 2.6875 0.234375 3.328125 0.265625 3.640625 0.265625 C 5.4375 0.265625 6.5625 -0.53125 6.5625 -2.390625 C 6.5625 -3.734375 5.5625 -4.734375 4.375 -5.015625 Z M 3.234375 -5.265625 "/>
</g>
<g id="glyph-3-25">
<path d="M 5.96875 -7.71875 C 5.96875 -8.109375 5.875 -8.296875 5.390625 -8.296875 L 4.953125 -8.296875 C 4.5 -8.296875 4.375 -8.140625 4.375 -7.71875 L 4.375 -5.015625 C 3.84375 -5.515625 3.234375 -5.609375 2.875 -5.609375 C 0.4375 -5.609375 0.4375 -3.3125 0.4375 -2.71875 C 0.4375 -2.171875 0.4375 0.125 2.8125 0.125 C 3.3125 0.125 3.828125 -0.015625 4.34375 -0.5625 C 4.34375 -0.125 4.5 0 4.90625 0 L 5.390625 0 C 5.84375 0 5.96875 -0.15625 5.96875 -0.578125 Z M 4.34375 -1.5 C 4.34375 -1.296875 4.34375 -1.1875 4 -0.9375 C 3.6875 -0.75 3.421875 -0.734375 3.28125 -0.734375 C 2.0625 -0.734375 2.0625 -1.828125 2.0625 -2.71875 C 2.0625 -3.625 2.0625 -4.75 3.40625 -4.75 C 3.75 -4.75 4.078125 -4.625 4.34375 -4.375 Z M 4.34375 -1.5 "/>
</g>
<g id="glyph-3-26">
<path d="M 2.625 -4.609375 L 3.1875 -4.609375 C 3.328125 -4.609375 3.765625 -4.609375 3.765625 -5.046875 C 3.765625 -5.46875 3.328125 -5.46875 3.1875 -5.46875 L 2.578125 -5.46875 L 2.578125 -6.78125 C 2.578125 -7.09375 2.578125 -7.5625 3.359375 -7.5625 C 3.734375 -7.5625 3.984375 -7.453125 4.21875 -7.234375 C 4.296875 -7.140625 4.34375 -7.109375 4.40625 -7.109375 C 4.546875 -7.109375 4.546875 -7.234375 4.546875 -7.421875 L 4.546875 -7.96875 C 4.546875 -8.265625 4.546875 -8.265625 4.140625 -8.359375 C 3.796875 -8.421875 3.53125 -8.421875 3.359375 -8.421875 C 2.46875 -8.421875 1.03125 -8.21875 1.03125 -6.4375 L 1.03125 -5.46875 C 0.78125 -5.46875 0.359375 -5.46875 0.359375 -5.046875 C 0.359375 -4.609375 0.765625 -4.609375 1.03125 -4.609375 L 1.03125 -0.578125 C 1.03125 -0.140625 1.15625 0 1.609375 0 L 2.046875 0 C 2.5 0 2.625 -0.15625 2.625 -0.578125 Z M 2.625 -4.609375 "/>
</g>
<g id="glyph-3-27">
<path d="M 2.359375 -0.46875 C 2.890625 0.125 3.546875 0.125 3.71875 0.125 C 6.25 0.125 6.25 -2.15625 6.25 -2.765625 C 6.25 -3.34375 6.25 -5.609375 4.09375 -5.609375 C 3.375 -5.609375 2.75 -5.3125 2.3125 -4.90625 C 2.3125 -5.359375 2.15625 -5.46875 1.75 -5.46875 L 1.296875 -5.46875 C 0.875 -5.46875 0.734375 -5.34375 0.734375 -4.90625 L 0.734375 1.75 C 0.734375 2.171875 0.859375 2.3125 1.296875 2.3125 L 1.78125 2.3125 C 2.234375 2.3125 2.359375 2.15625 2.359375 1.75 Z M 2.359375 -4.28125 C 2.484375 -4.40625 2.875 -4.671875 3.390625 -4.671875 C 4.609375 -4.671875 4.625 -3.265625 4.625 -2.734375 C 4.625 -2.265625 4.625 -0.734375 3.28125 -0.734375 C 3 -0.734375 2.78125 -0.828125 2.640625 -0.9375 C 2.359375 -1.140625 2.359375 -1.1875 2.359375 -1.40625 Z M 2.359375 -4.28125 "/>
</g>
<g id="glyph-3-28">
<path d="M 9.640625 -3.890625 C 9.640625 -5.109375 9.109375 -5.609375 7.890625 -5.609375 C 7.046875 -5.609375 6.390625 -5.21875 5.953125 -4.421875 C 5.765625 -5.5625 4.75 -5.609375 4.25 -5.609375 C 4.015625 -5.609375 3.515625 -5.609375 2.96875 -5.21875 C 2.609375 -4.9375 2.359375 -4.546875 2.28125 -4.375 L 2.265625 -4.375 L 2.265625 -4.96875 C 2.265625 -5.359375 2.1875 -5.546875 1.703125 -5.546875 L 1.296875 -5.546875 C 0.859375 -5.546875 0.71875 -5.421875 0.71875 -4.96875 L 0.71875 -0.578125 C 0.71875 -0.140625 0.84375 0 1.296875 0 L 1.765625 0 C 2.21875 0 2.34375 -0.15625 2.34375 -0.578125 L 2.34375 -3.21875 C 2.34375 -4.296875 3.078125 -4.75 3.65625 -4.75 C 4.234375 -4.75 4.359375 -4.5 4.359375 -3.859375 L 4.359375 -0.578125 C 4.359375 -0.140625 4.5 0 4.9375 0 L 5.421875 0 C 5.875 0 5.984375 -0.15625 5.984375 -0.578125 L 5.984375 -3.21875 C 5.984375 -4.296875 6.71875 -4.75 7.296875 -4.75 C 7.875 -4.75 8.015625 -4.5 8.015625 -3.859375 L 8.015625 -0.578125 C 8.015625 -0.140625 8.140625 0 8.578125 0 L 9.0625 0 C 9.515625 0 9.640625 -0.15625 9.640625 -0.578125 Z M 9.640625 -3.890625 "/>
</g>
<g id="glyph-3-29">
<path d="M 2.609375 -1.25 C 2.609375 -1.546875 2.59375 -1.5625 2.28125 -1.5625 L 1.359375 -1.5625 C 1.046875 -1.5625 1.046875 -1.546875 1.046875 -1.25 L 1.046875 -0.328125 C 1.046875 -0.015625 1.046875 0 1.359375 0 L 2.28125 0 C 2.59375 0 2.609375 -0.015625 2.609375 -0.328125 Z M 2.609375 -1.25 "/>
</g>
<g id="glyph-4-0">
<path d="M 5.96875 -4.828125 C 5.96875 -4.859375 5.921875 -4.953125 5.921875 -5 C 5.921875 -5.015625 5.921875 -5.015625 6.125 -5.171875 L 7.296875 -6.078125 C 8.890625 -7.328125 9.421875 -7.75 10.25 -7.8125 C 10.328125 -7.828125 10.453125 -7.828125 10.453125 -8.03125 C 10.453125 -8.109375 10.40625 -8.15625 10.3125 -8.15625 C 10.1875 -8.15625 10.046875 -8.140625 9.90625 -8.140625 L 9.453125 -8.140625 C 9.078125 -8.140625 8.6875 -8.15625 8.328125 -8.15625 C 8.25 -8.15625 8.109375 -8.15625 8.109375 -7.953125 C 8.109375 -7.828125 8.1875 -7.8125 8.265625 -7.8125 C 8.390625 -7.8125 8.546875 -7.75 8.546875 -7.59375 C 8.546875 -7.34375 8.1875 -7.0625 8.09375 -7 L 3.40625 -3.34375 L 4.40625 -7.296875 C 4.5 -7.703125 4.53125 -7.8125 5.375 -7.8125 C 5.609375 -7.8125 5.71875 -7.8125 5.71875 -8.046875 C 5.71875 -8.15625 5.59375 -8.15625 5.53125 -8.15625 C 5.3125 -8.15625 5.0625 -8.140625 4.84375 -8.140625 L 3.4375 -8.140625 C 3.21875 -8.140625 2.953125 -8.15625 2.734375 -8.15625 C 2.640625 -8.15625 2.515625 -8.15625 2.515625 -7.9375 C 2.515625 -7.8125 2.625 -7.8125 2.796875 -7.8125 C 3.53125 -7.8125 3.53125 -7.71875 3.53125 -7.59375 C 3.53125 -7.5625 3.53125 -7.5 3.484375 -7.3125 L 1.859375 -0.890625 C 1.75 -0.46875 1.734375 -0.34375 0.890625 -0.34375 C 0.671875 -0.34375 0.546875 -0.34375 0.546875 -0.125 C 0.546875 0 0.65625 0 0.734375 0 C 0.953125 0 1.1875 -0.03125 1.421875 -0.03125 L 2.828125 -0.03125 C 3.046875 -0.03125 3.296875 0 3.53125 0 C 3.625 0 3.75 0 3.75 -0.234375 C 3.75 -0.34375 3.640625 -0.34375 3.46875 -0.34375 C 2.734375 -0.34375 2.734375 -0.4375 2.734375 -0.5625 C 2.734375 -0.640625 2.8125 -0.9375 2.859375 -1.140625 L 3.328125 -2.984375 L 5.140625 -4.40625 C 5.484375 -3.640625 6.125 -2.109375 6.609375 -0.9375 C 6.640625 -0.875 6.671875 -0.796875 6.671875 -0.71875 C 6.671875 -0.359375 6.1875 -0.34375 6.078125 -0.34375 C 5.96875 -0.34375 5.859375 -0.34375 5.859375 -0.125 C 5.859375 0 5.984375 0 6.03125 0 C 6.4375 0 6.890625 -0.03125 7.296875 -0.03125 L 7.875 -0.03125 C 8.0625 -0.03125 8.265625 0 8.4375 0 C 8.515625 0 8.640625 0 8.640625 -0.234375 C 8.640625 -0.34375 8.53125 -0.34375 8.421875 -0.34375 C 7.96875 -0.359375 7.8125 -0.453125 7.640625 -0.890625 Z M 5.96875 -4.828125 "/>
</g>
<g id="glyph-4-1">
<path d="M 7.03125 -6.84375 L 7.296875 -7.109375 C 7.828125 -7.65625 8.265625 -7.78125 8.6875 -7.8125 C 8.828125 -7.828125 8.921875 -7.84375 8.921875 -8.046875 C 8.921875 -8.15625 8.8125 -8.15625 8.78125 -8.15625 C 8.640625 -8.15625 8.484375 -8.140625 8.34375 -8.140625 L 7.859375 -8.140625 C 7.5 -8.140625 7.140625 -8.15625 6.796875 -8.15625 C 6.71875 -8.15625 6.59375 -8.15625 6.59375 -7.9375 C 6.59375 -7.828125 6.703125 -7.8125 6.734375 -7.8125 C 7.09375 -7.796875 7.09375 -7.609375 7.09375 -7.546875 C 7.09375 -7.40625 7 -7.234375 6.765625 -6.953125 L 3.921875 -3.6875 L 2.5625 -7.328125 C 2.5 -7.5 2.5 -7.515625 2.5 -7.546875 C 2.5 -7.796875 2.984375 -7.8125 3.125 -7.8125 C 3.28125 -7.8125 3.40625 -7.8125 3.40625 -8.03125 C 3.40625 -8.15625 3.296875 -8.15625 3.234375 -8.15625 C 3.03125 -8.15625 2.78125 -8.140625 2.578125 -8.140625 L 1.25 -8.140625 C 1.046875 -8.140625 0.8125 -8.15625 0.609375 -8.15625 C 0.53125 -8.15625 0.390625 -8.15625 0.390625 -7.9375 C 0.390625 -7.8125 0.5 -7.8125 0.6875 -7.8125 C 1.265625 -7.8125 1.375 -7.703125 1.484375 -7.4375 L 2.96875 -3.453125 C 2.96875 -3.421875 3.015625 -3.28125 3.015625 -3.25 C 3.015625 -3.21875 2.421875 -0.859375 2.390625 -0.734375 C 2.296875 -0.421875 2.171875 -0.359375 1.40625 -0.34375 C 1.203125 -0.34375 1.109375 -0.34375 1.109375 -0.125 C 1.109375 0 1.25 0 1.28125 0 C 1.5 0 1.75 -0.03125 1.96875 -0.03125 L 3.375 -0.03125 C 3.59375 -0.03125 3.84375 0 4.0625 0 C 4.140625 0 4.296875 0 4.296875 -0.21875 C 4.296875 -0.34375 4.203125 -0.34375 4 -0.34375 C 3.265625 -0.34375 3.265625 -0.4375 3.265625 -0.5625 C 3.265625 -0.640625 3.359375 -1.03125 3.421875 -1.265625 L 3.84375 -2.984375 C 3.921875 -3.234375 3.921875 -3.265625 4.03125 -3.375 Z M 7.03125 -6.84375 "/>
</g>
<g id="glyph-4-2">
<path d="M 8.3125 -2.765625 C 8.3125 -2.8125 8.359375 -2.890625 8.359375 -2.9375 C 8.359375 -3 8.3125 -3.0625 8.234375 -3.0625 C 8.1875 -3.0625 8.15625 -3.046875 8.125 -3.015625 C 8.109375 -3 8.109375 -2.96875 8 -2.734375 C 7.296875 -1.0625 6.78125 -0.34375 4.859375 -0.34375 L 3.125 -0.34375 C 2.953125 -0.34375 2.921875 -0.34375 2.859375 -0.359375 C 2.71875 -0.375 2.71875 -0.390625 2.71875 -0.484375 C 2.71875 -0.578125 2.734375 -0.640625 2.765625 -0.75 L 3.578125 -4.046875 L 4.765625 -4.046875 C 5.703125 -4.046875 5.765625 -3.84375 5.765625 -3.484375 C 5.765625 -3.375 5.765625 -3.265625 5.6875 -2.90625 C 5.671875 -2.859375 5.65625 -2.8125 5.65625 -2.765625 C 5.65625 -2.6875 5.71875 -2.65625 5.78125 -2.65625 C 5.890625 -2.65625 5.90625 -2.734375 5.953125 -2.90625 L 6.640625 -5.671875 C 6.640625 -5.734375 6.59375 -5.796875 6.515625 -5.796875 C 6.40625 -5.796875 6.390625 -5.75 6.34375 -5.578125 C 6.109375 -4.65625 5.875 -4.40625 4.8125 -4.40625 L 3.671875 -4.40625 L 4.40625 -7.34375 C 4.515625 -7.75 4.546875 -7.796875 5.03125 -7.796875 L 6.734375 -7.796875 C 8.21875 -7.796875 8.515625 -7.40625 8.515625 -6.484375 C 8.515625 -6.484375 8.515625 -6.140625 8.46875 -5.75 C 8.453125 -5.703125 8.4375 -5.625 8.4375 -5.609375 C 8.4375 -5.515625 8.5 -5.46875 8.578125 -5.46875 C 8.65625 -5.46875 8.703125 -5.515625 8.71875 -5.734375 L 8.984375 -7.828125 C 8.984375 -7.859375 9 -7.984375 9 -8.015625 C 9 -8.140625 8.890625 -8.140625 8.671875 -8.140625 L 2.84375 -8.140625 C 2.625 -8.140625 2.5 -8.140625 2.5 -7.921875 C 2.5 -7.796875 2.578125 -7.796875 2.78125 -7.796875 C 3.53125 -7.796875 3.53125 -7.703125 3.53125 -7.578125 C 3.53125 -7.515625 3.515625 -7.46875 3.484375 -7.34375 L 1.859375 -0.890625 C 1.75 -0.46875 1.734375 -0.34375 0.890625 -0.34375 C 0.671875 -0.34375 0.546875 -0.34375 0.546875 -0.125 C 0.546875 0 0.625 0 0.859375 0 L 6.859375 0 C 7.125 0 7.140625 -0.015625 7.21875 -0.203125 Z M 8.3125 -2.765625 "/>
</g>
<g id="glyph-4-3">
<path d="M 5.671875 -4.859375 L 4.546875 -7.46875 C 4.703125 -7.75 5.0625 -7.8125 5.21875 -7.8125 C 5.28125 -7.8125 5.421875 -7.828125 5.421875 -8.03125 C 5.421875 -8.15625 5.3125 -8.15625 5.234375 -8.15625 C 5.03125 -8.15625 4.796875 -8.140625 4.59375 -8.140625 L 3.890625 -8.140625 C 3.171875 -8.140625 2.640625 -8.15625 2.625 -8.15625 C 2.53125 -8.15625 2.421875 -8.15625 2.421875 -7.9375 C 2.421875 -7.8125 2.515625 -7.8125 2.671875 -7.8125 C 3.375 -7.8125 3.421875 -7.703125 3.53125 -7.40625 L 4.953125 -4.09375 L 2.359375 -1.3125 C 1.9375 -0.84375 1.421875 -0.390625 0.53125 -0.34375 C 0.390625 -0.328125 0.296875 -0.328125 0.296875 -0.125 C 0.296875 -0.078125 0.3125 0 0.4375 0 C 0.609375 0 0.78125 -0.03125 0.953125 -0.03125 L 1.515625 -0.03125 C 1.90625 -0.03125 2.3125 0 2.6875 0 C 2.765625 0 2.921875 0 2.921875 -0.21875 C 2.921875 -0.328125 2.828125 -0.34375 2.765625 -0.34375 C 2.515625 -0.375 2.359375 -0.5 2.359375 -0.6875 C 2.359375 -0.890625 2.515625 -1.046875 2.859375 -1.40625 L 3.921875 -2.5625 C 4.1875 -2.828125 4.8125 -3.53125 5.078125 -3.796875 L 6.328125 -0.84375 C 6.34375 -0.828125 6.390625 -0.703125 6.390625 -0.6875 C 6.390625 -0.578125 6.125 -0.375 5.75 -0.34375 C 5.671875 -0.34375 5.546875 -0.328125 5.546875 -0.125 C 5.546875 0 5.671875 0 5.71875 0 C 5.921875 0 6.171875 -0.03125 6.375 -0.03125 L 7.6875 -0.03125 C 7.90625 -0.03125 8.125 0 8.328125 0 C 8.421875 0 8.546875 0 8.546875 -0.234375 C 8.546875 -0.34375 8.421875 -0.34375 8.3125 -0.34375 C 7.609375 -0.359375 7.578125 -0.421875 7.375 -0.859375 L 5.796875 -4.5625 L 7.3125 -6.1875 C 7.4375 -6.3125 7.703125 -6.609375 7.8125 -6.734375 C 8.328125 -7.265625 8.8125 -7.75 9.78125 -7.8125 C 9.890625 -7.828125 10.015625 -7.828125 10.015625 -8.03125 C 10.015625 -8.15625 9.90625 -8.15625 9.859375 -8.15625 C 9.6875 -8.15625 9.515625 -8.140625 9.34375 -8.140625 L 8.796875 -8.140625 C 8.421875 -8.140625 8 -8.15625 7.625 -8.15625 C 7.546875 -8.15625 7.40625 -8.15625 7.40625 -7.953125 C 7.40625 -7.828125 7.484375 -7.8125 7.546875 -7.8125 C 7.75 -7.796875 7.953125 -7.703125 7.953125 -7.46875 L 7.9375 -7.453125 C 7.921875 -7.359375 7.90625 -7.25 7.765625 -7.09375 Z M 5.671875 -4.859375 "/>
</g>
<g id="glyph-4-4">
<path d="M 1.875 -0.890625 C 1.765625 -0.46875 1.75 -0.34375 0.90625 -0.34375 C 0.6875 -0.34375 0.5625 -0.34375 0.5625 -0.125 C 0.5625 0 0.640625 0 0.875 0 L 4.65625 0 C 7.078125 0 9.4375 -2.5 9.4375 -5.15625 C 9.4375 -6.890625 8.40625 -8.15625 6.6875 -8.15625 L 2.859375 -8.15625 C 2.625 -8.15625 2.515625 -8.15625 2.515625 -7.9375 C 2.515625 -7.8125 2.625 -7.8125 2.8125 -7.8125 C 3.53125 -7.8125 3.53125 -7.71875 3.53125 -7.59375 C 3.53125 -7.5625 3.53125 -7.5 3.484375 -7.3125 Z M 4.40625 -7.34375 C 4.5 -7.796875 4.546875 -7.8125 5.015625 -7.8125 L 6.328125 -7.8125 C 7.453125 -7.8125 8.484375 -7.203125 8.484375 -5.5625 C 8.484375 -4.953125 8.25 -2.875 7.09375 -1.5625 C 6.75 -1.171875 5.84375 -0.34375 4.46875 -0.34375 L 3.109375 -0.34375 C 2.9375 -0.34375 2.921875 -0.34375 2.84375 -0.359375 C 2.71875 -0.375 2.703125 -0.390625 2.703125 -0.484375 C 2.703125 -0.578125 2.71875 -0.640625 2.75 -0.75 Z M 4.40625 -7.34375 "/>
</g>
<g id="glyph-5-0">
<path d="M 8.0625 -3.875 C 8.234375 -3.875 8.453125 -3.875 8.453125 -4.09375 C 8.453125 -4.3125 8.25 -4.3125 8.0625 -4.3125 L 1.03125 -4.3125 C 0.859375 -4.3125 0.640625 -4.3125 0.640625 -4.09375 C 0.640625 -3.875 0.84375 -3.875 1.03125 -3.875 Z M 8.0625 -1.65625 C 8.234375 -1.65625 8.453125 -1.65625 8.453125 -1.859375 C 8.453125 -2.09375 8.25 -2.09375 8.0625 -2.09375 L 1.03125 -2.09375 C 0.859375 -2.09375 0.640625 -2.09375 0.640625 -1.875 C 0.640625 -1.65625 0.84375 -1.65625 1.03125 -1.65625 Z M 8.0625 -1.65625 "/>
</g>
<g id="glyph-5-1">
<path d="M 3.890625 2.90625 C 3.890625 2.875 3.890625 2.84375 3.6875 2.640625 C 2.484375 1.4375 1.8125 -0.53125 1.8125 -2.96875 C 1.8125 -5.296875 2.375 -7.296875 3.765625 -8.703125 C 3.890625 -8.8125 3.890625 -8.828125 3.890625 -8.875 C 3.890625 -8.9375 3.828125 -8.96875 3.78125 -8.96875 C 3.625 -8.96875 2.640625 -8.109375 2.0625 -6.9375 C 1.453125 -5.71875 1.171875 -4.453125 1.171875 -2.96875 C 1.171875 -1.90625 1.34375 -0.484375 1.953125 0.78125 C 2.671875 2.21875 3.640625 3 3.78125 3 C 3.828125 3 3.890625 2.96875 3.890625 2.90625 Z M 3.890625 2.90625 "/>
</g>
<g id="glyph-5-2">
<path d="M 3.375 -2.96875 C 3.375 -3.890625 3.25 -5.359375 2.578125 -6.75 C 1.875 -8.1875 0.890625 -8.96875 0.765625 -8.96875 C 0.71875 -8.96875 0.65625 -8.9375 0.65625 -8.875 C 0.65625 -8.828125 0.65625 -8.8125 0.859375 -8.609375 C 2.0625 -7.40625 2.71875 -5.421875 2.71875 -2.984375 C 2.71875 -0.671875 2.15625 1.328125 0.78125 2.734375 C 0.65625 2.84375 0.65625 2.875 0.65625 2.90625 C 0.65625 2.96875 0.71875 3 0.765625 3 C 0.921875 3 1.90625 2.140625 2.484375 0.96875 C 3.09375 -0.25 3.375 -1.546875 3.375 -2.96875 Z M 3.375 -2.96875 "/>
</g>
<g id="glyph-6-0">
<path d="M 4.28125 -3.203125 C 4.265625 -3.21875 4.234375 -3.296875 4.234375 -3.3125 C 4.234375 -3.328125 4.359375 -3.421875 4.453125 -3.46875 C 5.078125 -3.9375 5.9375 -4.5625 6.203125 -4.71875 C 6.609375 -4.984375 6.90625 -5.140625 7.265625 -5.171875 C 7.328125 -5.1875 7.4375 -5.203125 7.4375 -5.34375 C 7.421875 -5.390625 7.375 -5.4375 7.328125 -5.4375 C 7.3125 -5.4375 7.09375 -5.421875 7.03125 -5.421875 L 6.71875 -5.421875 C 6.578125 -5.421875 6.390625 -5.421875 6.3125 -5.421875 C 6.25 -5.421875 5.9375 -5.4375 5.890625 -5.4375 C 5.828125 -5.4375 5.71875 -5.4375 5.71875 -5.296875 C 5.71875 -5.28125 5.734375 -5.1875 5.84375 -5.171875 C 5.90625 -5.171875 6.046875 -5.15625 6.046875 -5.0625 C 6.046875 -4.9375 5.875 -4.796875 5.859375 -4.796875 L 5.796875 -4.734375 C 5.78125 -4.703125 5.75 -4.671875 5.703125 -4.65625 L 2.453125 -2.296875 L 3.078125 -4.828125 C 3.15625 -5.109375 3.171875 -5.171875 3.75 -5.171875 C 3.90625 -5.171875 4.015625 -5.171875 4.015625 -5.328125 C 4.015625 -5.34375 4 -5.4375 3.875 -5.4375 C 3.71875 -5.4375 3.53125 -5.421875 3.375 -5.421875 L 2.875 -5.421875 C 2.109375 -5.421875 1.90625 -5.4375 1.84375 -5.4375 C 1.8125 -5.4375 1.6875 -5.4375 1.6875 -5.296875 C 1.6875 -5.171875 1.78125 -5.171875 1.921875 -5.171875 C 2.1875 -5.171875 2.421875 -5.171875 2.421875 -5.046875 C 2.421875 -5.015625 2.40625 -5.015625 2.375 -4.90625 L 1.3125 -0.625 C 1.25 -0.328125 1.234375 -0.265625 0.640625 -0.265625 C 0.484375 -0.265625 0.390625 -0.265625 0.390625 -0.109375 C 0.390625 -0.078125 0.421875 0 0.515625 0 C 0.671875 0 0.859375 -0.015625 1.015625 -0.03125 L 2.046875 -0.03125 C 2.171875 -0.015625 2.4375 0 2.546875 0 C 2.59375 0 2.703125 0 2.703125 -0.140625 C 2.703125 -0.265625 2.609375 -0.265625 2.484375 -0.265625 C 2.421875 -0.265625 2.3125 -0.265625 2.171875 -0.28125 C 2.015625 -0.296875 1.984375 -0.3125 1.984375 -0.390625 C 1.984375 -0.4375 2.046875 -0.640625 2.0625 -0.765625 L 2.359375 -1.96875 L 3.65625 -2.890625 L 4.609375 -0.921875 C 4.640625 -0.859375 4.71875 -0.6875 4.75 -0.609375 C 4.8125 -0.53125 4.8125 -0.515625 4.8125 -0.484375 C 4.8125 -0.265625 4.515625 -0.265625 4.421875 -0.265625 C 4.34375 -0.265625 4.234375 -0.265625 4.234375 -0.109375 C 4.234375 -0.109375 4.234375 0 4.359375 0 C 4.453125 0 4.75 -0.015625 4.828125 -0.03125 L 5.28125 -0.03125 C 6.015625 -0.03125 6 0 6.09375 0 C 6.125 0 6.25 0 6.25 -0.15625 C 6.25 -0.265625 6.140625 -0.265625 6.09375 -0.265625 C 5.78125 -0.265625 5.671875 -0.328125 5.546875 -0.59375 Z M 4.28125 -3.203125 "/>
</g>
<g id="glyph-7-0">
<path d="M 8.671875 -3.90625 C 9.1875 -3.484375 9.796875 -3.171875 10.1875 -2.984375 C 9.75 -2.796875 9.171875 -2.484375 8.671875 -2.0625 L 1.09375 -2.0625 C 0.890625 -2.0625 0.65625 -2.0625 0.65625 -1.828125 C 0.65625 -1.59375 0.875 -1.59375 1.078125 -1.59375 L 8.140625 -1.59375 C 7.5625 -1.046875 6.9375 0.015625 6.9375 0.171875 C 6.9375 0.296875 7.09375 0.296875 7.171875 0.296875 C 7.265625 0.296875 7.34375 0.296875 7.40625 0.203125 C 7.65625 -0.25 7.984375 -0.890625 8.765625 -1.578125 C 9.59375 -2.3125 10.390625 -2.625 11.015625 -2.8125 C 11.21875 -2.875 11.21875 -2.890625 11.25 -2.921875 C 11.265625 -2.921875 11.265625 -2.96875 11.265625 -2.984375 C 11.265625 -3.015625 11.265625 -3.03125 11.265625 -3.0625 L 11.21875 -3.078125 C 11.203125 -3.09375 11.1875 -3.109375 10.96875 -3.171875 C 9.34375 -3.65625 8.15625 -4.75 7.484375 -6.03125 C 7.34375 -6.265625 7.34375 -6.28125 7.171875 -6.28125 C 7.09375 -6.28125 6.9375 -6.28125 6.9375 -6.140625 C 6.9375 -5.984375 7.546875 -4.953125 8.140625 -4.390625 L 1.078125 -4.390625 C 0.875 -4.390625 0.65625 -4.390625 0.65625 -4.140625 C 0.65625 -3.90625 0.890625 -3.90625 1.09375 -3.90625 Z M 8.671875 -3.90625 "/>
</g>
</g>
<clipPath id="clip-0">
<path clip-rule="nonzero" d="M 339 60 L 473.46875 60 L 473.46875 136 L 339 136 Z M 339 60 "/>
</clipPath>
</defs>
<path fill-rule="nonzero" fill="rgb(100%, 100%, 100%)" fill-opacity="1" d="M 5.671875 269.371094 L 5.671875 5.671875 L 467.796875 5.671875 L 467.796875 269.371094 Z M 5.671875 269.371094 "/>
<g fill="rgb(0%, 0%, 0%)" fill-opacity="1">
<use xlink:href="#glyph-0-0" x="97.754" y="37.644"/>
<use xlink:href="#glyph-0-1" x="109.150621" y="37.644"/>
</g>
<g fill="rgb(0%, 0%, 0%)" fill-opacity="1">
<use xlink:href="#glyph-0-2" x="116.596299" y="37.644"/>
</g>
<g fill="rgb(0%, 0%, 0%)" fill-opacity="1">
<use xlink:href="#glyph-0-3" x="132.540666" y="37.644"/>
<use xlink:href="#glyph-0-1" x="140.590319" y="37.644"/>
</g>
<g fill="rgb(0%, 0%, 0%)" fill-opacity="1">
<use xlink:href="#glyph-0-4" x="153.745784" y="37.644"/>
<use xlink:href="#glyph-0-5" x="164.265852" y="37.644"/>
<use xlink:href="#glyph-0-6" x="167.932741" y="37.644"/>
<use xlink:href="#glyph-0-7" x="171.59963" y="37.644"/>
<use xlink:href="#glyph-0-8" x="178.613487" y="37.644"/>
</g>
<g fill="rgb(0%, 0%, 0%)" fill-opacity="1">
<use xlink:href="#glyph-0-9" x="191.210885" y="37.644"/>
<use xlink:href="#glyph-0-10" x="198.74264" y="37.644"/>
<use xlink:href="#glyph-0-3" x="206.792293" y="37.644"/>
</g>
<g fill="rgb(0%, 0%, 0%)" fill-opacity="1">
<use xlink:href="#glyph-0-11" x="220.092655" y="37.644"/>
<use xlink:href="#glyph-0-1" x="230.612724" y="37.644"/>
<use xlink:href="#glyph-0-12" x="238.503134" y="37.644"/>
</g>
<g fill="rgb(0%, 0%, 0%)" fill-opacity="1">
<use xlink:href="#glyph-0-13" x="251.817842" y="37.644"/>
<use xlink:href="#glyph-0-8" x="257.867634" y="37.644"/>
<use xlink:href="#glyph-0-7" x="265.199977" y="37.644"/>
<use xlink:href="#glyph-0-14" x="272.213834" y="37.644"/>
<use xlink:href="#glyph-0-15" x="280.263487" y="37.644"/>
<use xlink:href="#glyph-0-8" x="285.603143" y="37.644"/>
<use xlink:href="#glyph-0-5" x="292.935486" y="37.644"/>
<use xlink:href="#glyph-0-16" x="296.602374" y="37.644"/>
</g>
<g fill="rgb(0%, 0%, 0%)" fill-opacity="1">
<use xlink:href="#glyph-0-1" x="309.04053" y="37.644"/>
<use xlink:href="#glyph-0-12" x="316.93094" y="37.644"/>
<use xlink:href="#glyph-0-17" x="324.980593" y="37.644"/>
<use xlink:href="#glyph-0-9" x="330.779327" y="37.644"/>
<use xlink:href="#glyph-0-6" x="338.311082" y="37.644"/>
<use xlink:href="#glyph-0-10" x="341.97797" y="37.644"/>
</g>
<g fill="rgb(0%, 0%, 0%)" fill-opacity="1">
<use xlink:href="#glyph-1-0" x="355.281" y="37.644"/>
</g>
<g fill="rgb(0%, 0%, 0%)" fill-opacity="1">
<use xlink:href="#glyph-0-18" x="368.262" y="37.644"/>
</g>
<g fill="rgb(0%, 0%, 0%)" fill-opacity="1">
<use xlink:href="#glyph-2-0" x="64.848" y="56.888"/>
<use xlink:href="#glyph-2-1" x="72.831683" y="56.888"/>
<use xlink:href="#glyph-2-2" x="78.83678" y="56.888"/>
</g>
<g fill="rgb(0%, 0%, 0%)" fill-opacity="1">
<use xlink:href="#glyph-2-3" x="87.937078" y="56.888"/>
<use xlink:href="#glyph-2-4" x="92.423864" y="56.888"/>
<use xlink:href="#glyph-2-5" x="98.027267" y="56.888"/>
<use xlink:href="#glyph-2-2" x="107.284178" y="56.888"/>
</g>
<g fill="rgb(0%, 0%, 0%)" fill-opacity="1">
<use xlink:href="#glyph-2-3" x="116.396431" y="56.888"/>
<use xlink:href="#glyph-2-2" x="120.883218" y="56.888"/>
<use xlink:href="#glyph-2-6" x="126.086121" y="56.888"/>
<use xlink:href="#glyph-2-7" x="131.289024" y="56.888"/>
<use xlink:href="#glyph-2-2" x="135.267715" y="56.888"/>
<use xlink:href="#glyph-2-8" x="140.470618" y="56.888"/>
</g>
<g fill="rgb(0%, 0%, 0%)" fill-opacity="1">
<use xlink:href="#glyph-2-9" x="148.595372" y="56.888"/>
</g>
<g fill="rgb(0%, 0%, 0%)" fill-opacity="1">
<use xlink:href="#glyph-2-2" x="153.952497" y="56.888"/>
<use xlink:href="#glyph-2-10" x="159.1554" y="56.888"/>
</g>
<g fill="rgb(0%, 0%, 0%)" fill-opacity="1">
<use xlink:href="#glyph-2-5" x="168.407529" y="56.888"/>
<use xlink:href="#glyph-2-11" x="177.66444" y="56.888"/>
<use xlink:href="#glyph-2-3" x="183.669537" y="56.888"/>
<use xlink:href="#glyph-2-8" x="188.156324" y="56.888"/>
</g>
<g fill="rgb(0%, 0%, 0%)" fill-opacity="1">
<use xlink:href="#glyph-2-12" x="196.293033" y="56.888"/>
</g>
<g fill="rgb(0%, 0%, 0%)" fill-opacity="1">
<use xlink:href="#glyph-2-2" x="202.62092" y="56.888"/>
</g>
<g fill="rgb(0%, 0%, 0%)" fill-opacity="1">
<use xlink:href="#glyph-2-3" x="211.721219" y="56.888"/>
<use xlink:href="#glyph-2-1" x="216.208005" y="56.888"/>
<use xlink:href="#glyph-2-4" x="222.213102" y="56.888"/>
</g>
<g fill="rgb(0%, 0%, 0%)" fill-opacity="1">
<use xlink:href="#glyph-2-7" x="227.493714" y="56.888"/>
<use xlink:href="#glyph-2-2" x="231.472404" y="56.888"/>
<use xlink:href="#glyph-2-13" x="236.675308" y="56.888"/>
</g>
<g fill="rgb(0%, 0%, 0%)" fill-opacity="1">
<use xlink:href="#glyph-2-12" x="246.589755" y="56.888"/>
</g>
<g fill="rgb(0%, 0%, 0%)" fill-opacity="1">
<use xlink:href="#glyph-2-2" x="252.917642" y="56.888"/>
<use xlink:href="#glyph-2-14" x="258.120545" y="56.888"/>
<use xlink:href="#glyph-2-15" x="261.697541" y="56.888"/>
</g>
<g fill="rgb(0%, 0%, 0%)" fill-opacity="1">
<use xlink:href="#glyph-2-7" x="267.216061" y="56.888"/>
<use xlink:href="#glyph-2-2" x="271.194752" y="56.888"/>
</g>
<g fill="rgb(0%, 0%, 0%)" fill-opacity="1">
<use xlink:href="#glyph-2-2" x="280.307005" y="56.888"/>
<use xlink:href="#glyph-2-16" x="285.509908" y="56.888"/>
<use xlink:href="#glyph-2-6" x="291.515005" y="56.888"/>
<use xlink:href="#glyph-2-7" x="296.717908" y="56.888"/>
<use xlink:href="#glyph-2-10" x="300.696599" y="56.888"/>
<use xlink:href="#glyph-2-17" x="306.051333" y="56.888"/>
<use xlink:href="#glyph-2-8" x="312.05643" y="56.888"/>
<use xlink:href="#glyph-2-2" x="316.283789" y="56.888"/>
<use xlink:href="#glyph-2-13" x="321.486692" y="56.888"/>
</g>
<g fill="rgb(0%, 0%, 0%)" fill-opacity="1">
<use xlink:href="#glyph-2-6" x="331.389184" y="56.888"/>
<use xlink:href="#glyph-2-15" x="336.592087" y="56.888"/>
<use xlink:href="#glyph-2-5" x="342.445353" y="56.888"/>
<use xlink:href="#glyph-2-5" x="351.702264" y="56.888"/>
<use xlink:href="#glyph-2-11" x="360.959176" y="56.888"/>
<use xlink:href="#glyph-2-16" x="366.964273" y="56.888"/>
<use xlink:href="#glyph-2-18" x="372.96937" y="56.888"/>
<use xlink:href="#glyph-2-6" x="375.722652" y="56.888"/>
<use xlink:href="#glyph-2-4" x="380.925555" y="56.888"/>
<use xlink:href="#glyph-2-8" x="386.528957" y="56.888"/>
<use xlink:href="#glyph-2-18" x="390.756316" y="56.888"/>
<use xlink:href="#glyph-2-15" x="393.509599" y="56.888"/>
<use xlink:href="#glyph-2-16" x="399.362865" y="56.888"/>
<use xlink:href="#glyph-2-19" x="405.367962" y="56.888"/>
</g>
<path fill-rule="nonzero" fill="rgb(100%, 100%, 100%)" fill-opacity="1" stroke-width="0.89664" stroke-linecap="butt" stroke-linejoin="miter" stroke="rgb(0%, 0%, 0%)" stroke-opacity="1" stroke-miterlimit="10" d="M -118.663687 64.42725 L -221.495719 64.42725 C -223.148062 64.42725 -224.487906 63.087406 -224.487906 61.438969 L -224.487906 17.935062 C -224.487906 16.282719 -223.148062 14.942875 -221.495719 14.942875 L -118.663687 14.942875 C -117.01525 14.942875 -115.675406 16.282719 -115.675406 17.935062 L -115.675406 61.438969 C -115.675406 63.087406 -117.01525 64.42725 -118.663687 64.42725 Z M -118.663687 64.42725 " transform="matrix(1, 0, 0, -1, 236.734, 137.521)"/>
<g fill="rgb(0%, 0%, 0%)" fill-opacity="1">
<use xlink:href="#glyph-3-0" x="53.239" y="91.361"/>
<use xlink:href="#glyph-3-1" x="62.005748" y="91.361"/>
<use xlink:href="#glyph-3-2" x="65.061497" y="91.361"/>
<use xlink:href="#glyph-3-3" x="68.117246" y="91.361"/>
<use xlink:href="#glyph-3-4" x="73.962144" y="91.361"/>
</g>
<g fill="rgb(0%, 0%, 0%)" fill-opacity="1">
<use xlink:href="#glyph-2-20" x="22.214" y="110.29"/>
<use xlink:href="#glyph-2-3" x="30.184532" y="110.29"/>
<use xlink:href="#glyph-2-2" x="34.671318" y="110.29"/>
<use xlink:href="#glyph-2-3" x="39.874221" y="110.29"/>
</g>
<g fill="rgb(0%, 0%, 0%)" fill-opacity="1">
<use xlink:href="#glyph-2-3" x="48.258403" y="110.29"/>
<use xlink:href="#glyph-2-2" x="52.74519" y="110.29"/>
<use xlink:href="#glyph-2-6" x="57.948093" y="110.29"/>
<use xlink:href="#glyph-2-7" x="63.150996" y="110.29"/>
<use xlink:href="#glyph-2-2" x="67.129686" y="110.29"/>
<use xlink:href="#glyph-2-8" x="72.332589" y="110.29"/>
</g>
<g fill="rgb(0%, 0%, 0%)" fill-opacity="1">
<use xlink:href="#glyph-2-9" x="80.469299" y="110.29"/>
</g>
<g fill="rgb(0%, 0%, 0%)" fill-opacity="1">
<use xlink:href="#glyph-2-2" x="85.814468" y="110.29"/>
<use xlink:href="#glyph-2-10" x="91.017372" y="110.29"/>
</g>
<g fill="rgb(0%, 0%, 0%)" fill-opacity="1">
<use xlink:href="#glyph-4-0" x="100.28" y="110.29"/>
</g>
<path fill-rule="nonzero" fill="rgb(100%, 100%, 100%)" fill-opacity="1" stroke-width="0.89664" stroke-linecap="butt" stroke-linejoin="miter" stroke="rgb(0%, 0%, 0%)" stroke-opacity="1" stroke-miterlimit="10" d="M 65.043344 70.903812 L -65.042594 70.903812 C -66.694937 70.903812 -68.030875 69.563969 -68.030875 67.911625 L -68.030875 11.4585 C -68.030875 9.806156 -66.694937 8.470219 -65.042594 8.470219 L 65.043344 8.470219 C 66.695688 8.470219 68.031625 9.806156 68.031625 11.4585 L 68.031625 67.911625 C 68.031625 69.563969 66.695688 70.903812 65.043344 70.903812 Z M 65.043344 70.903812 " transform="matrix(1, 0, 0, -1, 236.734, 137.521)"/>
<g fill="rgb(0%, 0%, 0%)" fill-opacity="1">
<use xlink:href="#glyph-3-5" x="191.673" y="84.885"/>
<use xlink:href="#glyph-3-4" x="200.805577" y="84.885"/>
<use xlink:href="#glyph-3-6" x="206.91588" y="84.885"/>
</g>
<g fill="rgb(0%, 0%, 0%)" fill-opacity="1">
<use xlink:href="#glyph-3-7" x="217.281038" y="84.885"/>
<use xlink:href="#glyph-3-2" x="226.778249" y="84.885"/>
<use xlink:href="#glyph-3-8" x="229.833998" y="84.885"/>
<use xlink:href="#glyph-3-9" x="234.875506" y="84.885"/>
<use xlink:href="#glyph-3-10" x="239.707798" y="84.885"/>
<use xlink:href="#glyph-3-2" x="244.157524" y="84.885"/>
<use xlink:href="#glyph-3-11" x="247.213273" y="84.885"/>
<use xlink:href="#glyph-3-12" x="253.921335" y="84.885"/>
<use xlink:href="#glyph-3-9" x="260.629398" y="84.885"/>
<use xlink:href="#glyph-3-2" x="265.46169" y="84.885"/>
<use xlink:href="#glyph-3-13" x="268.517439" y="84.885"/>
<use xlink:href="#glyph-3-14" x="275.092799" y="84.885"/>
</g>
<g fill="rgb(0%, 0%, 0%)" fill-opacity="1">
<use xlink:href="#glyph-3-15" x="214.75" y="98.833"/>
<use xlink:href="#glyph-3-16" x="223.152115" y="98.833"/>
<use xlink:href="#glyph-3-17" x="229.860177" y="98.833"/>
<use xlink:href="#glyph-3-14" x="236.136657" y="98.833"/>
<use xlink:href="#glyph-3-14" x="242.84472" y="98.833"/>
<use xlink:href="#glyph-3-4" x="249.552783" y="98.833"/>
<use xlink:href="#glyph-3-1" x="255.663085" y="98.833"/>
</g>
<g fill="rgb(0%, 0%, 0%)" fill-opacity="1">
<use xlink:href="#glyph-2-21" x="197.8" y="116.766"/>
<use xlink:href="#glyph-2-11" x="207.955942" y="116.766"/>
<use xlink:href="#glyph-2-3" x="213.961039" y="116.766"/>
<use xlink:href="#glyph-2-8" x="218.447826" y="116.766"/>
</g>
<g fill="rgb(0%, 0%, 0%)" fill-opacity="1">
<use xlink:href="#glyph-2-17" x="226.57258" y="116.766"/>
</g>
<g fill="rgb(0%, 0%, 0%)" fill-opacity="1">
<use xlink:href="#glyph-2-7" x="232.254886" y="116.766"/>
<use xlink:href="#glyph-2-15" x="236.233577" y="116.766"/>
<use xlink:href="#glyph-2-8" x="242.086843" y="116.766"/>
<use xlink:href="#glyph-2-2" x="246.314202" y="116.766"/>
<use xlink:href="#glyph-2-6" x="251.517105" y="116.766"/>
<use xlink:href="#glyph-2-8" x="256.720008" y="116.766"/>
</g>
<g fill="rgb(0%, 0%, 0%)" fill-opacity="1">
<use xlink:href="#glyph-4-0" x="264.851" y="116.766"/>
</g>
<path fill-rule="nonzero" fill="rgb(100%, 100%, 100%)" fill-opacity="1" d="M 458.230469 73.09375 L 355.398438 73.09375 C 353.746094 73.09375 352.410156 74.433594 352.410156 76.082031 L 352.410156 119.585938 C 352.410156 121.238281 353.746094 122.578125 355.398438 122.578125 L 458.230469 122.578125 C 459.882812 122.578125 461.21875 121.238281 461.21875 119.585938 L 461.21875 76.082031 C 461.21875 74.433594 459.882812 73.09375 458.230469 73.09375 Z M 458.230469 73.09375 "/>
<g clip-path="url(#clip-0)">
<path fill="none" stroke-width="0.89664" stroke-linecap="butt" stroke-linejoin="miter" stroke="rgb(0%, 0%, 0%)" stroke-opacity="1" stroke-miterlimit="10" d="M 221.496469 64.42725 L 118.664438 64.42725 C 117.012094 64.42725 115.676156 63.087406 115.676156 61.438969 L 115.676156 17.935062 C 115.676156 16.282719 117.012094 14.942875 118.664438 14.942875 L 221.496469 14.942875 C 223.148813 14.942875 224.48475 16.282719 224.48475 17.935062 L 224.48475 61.438969 C 224.48475 63.087406 223.148813 64.42725 221.496469 64.42725 Z M 221.496469 64.42725 " transform="matrix(1, 0, 0, -1, 236.734, 137.521)"/>
</g>
<g fill="rgb(0%, 0%, 0%)" fill-opacity="1">
<use xlink:href="#glyph-3-18" x="395.787" y="91.361"/>
<use xlink:href="#glyph-3-13" x="404.553748" y="91.361"/>
<use xlink:href="#glyph-3-11" x="411.129108" y="91.361"/>
</g>
<g fill="rgb(0%, 0%, 0%)" fill-opacity="1">
<use xlink:href="#glyph-2-20" x="362.371" y="110.29"/>
<use xlink:href="#glyph-2-3" x="370.341532" y="110.29"/>
<use xlink:href="#glyph-2-2" x="374.828318" y="110.29"/>
<use xlink:href="#glyph-2-3" x="380.031221" y="110.29"/>
</g>
<g fill="rgb(0%, 0%, 0%)" fill-opacity="1">
<use xlink:href="#glyph-2-3" x="388.415403" y="110.29"/>
<use xlink:href="#glyph-2-2" x="392.90219" y="110.29"/>
<use xlink:href="#glyph-2-6" x="398.105093" y="110.29"/>
<use xlink:href="#glyph-2-7" x="403.307996" y="110.29"/>
<use xlink:href="#glyph-2-2" x="407.286686" y="110.29"/>
<use xlink:href="#glyph-2-8" x="412.489589" y="110.29"/>
</g>
<g fill="rgb(0%, 0%, 0%)" fill-opacity="1">
<use xlink:href="#glyph-2-9" x="420.626299" y="110.29"/>
</g>
<g fill="rgb(0%, 0%, 0%)" fill-opacity="1">
<use xlink:href="#glyph-2-2" x="425.983424" y="110.29"/>
</g>
<g fill="rgb(0%, 0%, 0%)" fill-opacity="1">
<use xlink:href="#glyph-2-10" x="431.174372" y="110.29"/>
</g>
<g fill="rgb(0%, 0%, 0%)" fill-opacity="1">
<use xlink:href="#glyph-4-0" x="440.437" y="110.29"/>
</g>
<path fill="none" stroke-width="0.89664" stroke-linecap="butt" stroke-linejoin="miter" stroke="rgb(0%, 0%, 0%)" stroke-opacity="1" stroke-miterlimit="10" d="M -68.480094 39.685062 L -107.1715 39.685062 " transform="matrix(1, 0, 0, -1, 236.734, 137.521)"/>
<path fill-rule="nonzero" fill="rgb(0%, 0%, 0%)" fill-opacity="1" stroke-width="0.89664" stroke-linecap="butt" stroke-linejoin="miter" stroke="rgb(0%, 0%, 0%)" stroke-opacity="1" stroke-miterlimit="10" d="M 6.206941 0.0002875 C 5.445222 0.187788 2.09366 1.250288 -0.00009 2.406538 L -0.00009 -2.409869 C 2.09366 -1.249712 5.445222 -0.187212 6.206941 0.0002875 Z M 6.206941 0.0002875 " transform="matrix(-1, 0, 0, 1, 129.56241, 97.83565)"/>
<g fill="rgb(0%, 0%, 0%)" fill-opacity="1">
<use xlink:href="#glyph-4-0" x="139.473" y="89.086"/>
</g>
<path fill="none" stroke-width="0.89664" stroke-linecap="butt" stroke-linejoin="miter" stroke="rgb(0%, 0%, 0%)" stroke-opacity="1" stroke-miterlimit="10" d="M 68.480844 39.685062 L 107.17225 39.685062 " transform="matrix(1, 0, 0, -1, 236.734, 137.521)"/>
<path fill-rule="nonzero" fill="rgb(0%, 0%, 0%)" fill-opacity="1" stroke-width="0.89664" stroke-linecap="butt" stroke-linejoin="miter" stroke="rgb(0%, 0%, 0%)" stroke-opacity="1" stroke-miterlimit="10" d="M 6.207691 -0.0002875 C 5.445973 0.187212 2.09441 1.249712 0.00066 2.409869 L 0.00066 -2.406538 C 2.09441 -1.250288 5.445973 -0.187788 6.207691 -0.0002875 Z M 6.207691 -0.0002875 " transform="matrix(1, 0, 0, -1, 343.90559, 97.83565)"/>
<g fill="rgb(0%, 0%, 0%)" fill-opacity="1">
<use xlink:href="#glyph-4-0" x="323.178" y="89.086"/>
</g>
<path fill-rule="nonzero" fill="rgb(100%, 100%, 100%)" fill-opacity="1" stroke-width="0.89664" stroke-linecap="butt" stroke-linejoin="miter" stroke="rgb(0%, 0%, 0%)" stroke-opacity="1" stroke-miterlimit="10" d="M 146.183969 -11.900875 L -146.183219 -11.900875 C -147.835562 -11.900875 -149.1715 -13.240719 -149.1715 -14.893063 L -149.1715 -78.654781 C -149.1715 -80.303219 -147.835562 -81.643063 -146.183219 -81.643063 L 146.183969 -81.643063 C 147.836313 -81.643063 149.17225 -80.303219 149.17225 -78.654781 L 149.17225 -14.893063 C 149.17225 -13.240719 147.836313 -11.900875 146.183969 -11.900875 Z M 146.183969 -11.900875 " transform="matrix(1, 0, 0, -1, 236.734, 137.521)"/>
<g fill="rgb(0%, 0%, 0%)" fill-opacity="1">
<use xlink:href="#glyph-3-19" x="197.249" y="168.353"/>
<use xlink:href="#glyph-3-20" x="204.920652" y="168.353"/>
<use xlink:href="#glyph-3-4" x="210.898252" y="168.353"/>
</g>
<g fill="rgb(0%, 0%, 0%)" fill-opacity="1">
<use xlink:href="#glyph-3-21" x="221.396113" y="168.353"/>
<use xlink:href="#glyph-3-17" x="226.510548" y="168.353"/>
<use xlink:href="#glyph-3-9" x="232.787028" y="168.353"/>
<use xlink:href="#glyph-3-9" x="237.619319" y="168.353"/>
<use xlink:href="#glyph-3-17" x="242.451611" y="168.353"/>
<use xlink:href="#glyph-3-3" x="248.728091" y="168.353"/>
<use xlink:href="#glyph-3-22" x="254.572988" y="168.353"/>
</g>
<g fill="rgb(0%, 0%, 0%)" fill-opacity="1">
<use xlink:href="#glyph-3-4" x="260.545806" y="168.353"/>
<use xlink:href="#glyph-3-10" x="266.656109" y="168.353"/>
<use xlink:href="#glyph-3-23" x="271.105835" y="168.353"/>
</g>
<g fill="rgb(0%, 0%, 0%)" fill-opacity="1">
<use xlink:href="#glyph-2-22" x="97.526" y="187.282"/>
<use xlink:href="#glyph-2-14" x="100.708474" y="187.282"/>
</g>
<g fill="rgb(0%, 0%, 0%)" fill-opacity="1">
<use xlink:href="#glyph-2-23" x="108.182865" y="187.282"/>
<use xlink:href="#glyph-2-24" x="115.156333" y="187.282"/>
<use xlink:href="#glyph-2-2" x="120.511068" y="187.282"/>
</g>
<g fill="rgb(0%, 0%, 0%)" fill-opacity="1">
<use xlink:href="#glyph-2-15" x="129.623321" y="187.282"/>
<use xlink:href="#glyph-2-12" x="135.476587" y="187.282"/>
<use xlink:href="#glyph-2-8" x="141.481684" y="187.282"/>
<use xlink:href="#glyph-2-4" x="145.709043" y="187.282"/>
<use xlink:href="#glyph-2-18" x="151.312445" y="187.282"/>
<use xlink:href="#glyph-2-16" x="154.065727" y="187.282"/>
<use xlink:href="#glyph-2-3" x="160.070824" y="187.282"/>
</g>
<g fill="rgb(0%, 0%, 0%)" fill-opacity="1">
<use xlink:href="#glyph-4-0" x="168.458" y="187.282"/>
</g>
<g fill="rgb(0%, 0%, 0%)" fill-opacity="1">
<use xlink:href="#glyph-2-25" x="179.275" y="187.282"/>
</g>
<g fill="rgb(0%, 0%, 0%)" fill-opacity="1">
<use xlink:href="#glyph-2-3" x="186.42421" y="187.282"/>
<use xlink:href="#glyph-2-1" x="190.910996" y="187.282"/>
<use xlink:href="#glyph-2-2" x="196.916093" y="187.282"/>
</g>
<g fill="rgb(0%, 0%, 0%)" fill-opacity="1">
<use xlink:href="#glyph-2-6" x="206.028347" y="187.282"/>
<use xlink:href="#glyph-2-4" x="211.23125" y="187.282"/>
<use xlink:href="#glyph-2-16" x="216.834652" y="187.282"/>
</g>
<g fill="rgb(0%, 0%, 0%)" fill-opacity="1">
<use xlink:href="#glyph-2-13" x="226.737144" y="187.282"/>
<use xlink:href="#glyph-2-2" x="232.742241" y="187.282"/>
<use xlink:href="#glyph-2-6" x="237.945144" y="187.282"/>
<use xlink:href="#glyph-2-7" x="243.148047" y="187.282"/>
<use xlink:href="#glyph-2-10" x="247.126738" y="187.282"/>
<use xlink:href="#glyph-2-17" x="252.481472" y="187.282"/>
<use xlink:href="#glyph-2-8" x="258.486569" y="187.282"/>
</g>
<g fill="rgb(0%, 0%, 0%)" fill-opacity="1">
<use xlink:href="#glyph-2-18" x="266.623278" y="187.282"/>
<use xlink:href="#glyph-2-16" x="269.37656" y="187.282"/>
<use xlink:href="#glyph-2-8" x="275.381657" y="187.282"/>
<use xlink:href="#glyph-2-2" x="279.609016" y="187.282"/>
<use xlink:href="#glyph-2-7" x="284.811919" y="187.282"/>
</g>
<g fill="rgb(0%, 0%, 0%)" fill-opacity="1">
<use xlink:href="#glyph-2-6" x="288.778654" y="187.282"/>
<use xlink:href="#glyph-2-2" x="293.981557" y="187.282"/>
<use xlink:href="#glyph-2-17" x="299.18446" y="187.282"/>
<use xlink:href="#glyph-2-8" x="305.189557" y="187.282"/>
<use xlink:href="#glyph-2-2" x="309.416916" y="187.282"/>
<use xlink:href="#glyph-2-13" x="314.619819" y="187.282"/>
</g>
<g fill="rgb(0%, 0%, 0%)" fill-opacity="1">
<use xlink:href="#glyph-2-6" x="324.534267" y="187.282"/>
<use xlink:href="#glyph-2-18" x="329.73717" y="187.282"/>
<use xlink:href="#glyph-2-17" x="332.490452" y="187.282"/>
<use xlink:href="#glyph-2-1" x="338.495549" y="187.282"/>
<use xlink:href="#glyph-2-2" x="344.500646" y="187.282"/>
<use xlink:href="#glyph-2-7" x="349.703549" y="187.282"/>
<use xlink:href="#glyph-2-8" x="353.68224" y="187.282"/>
<use xlink:href="#glyph-2-2" x="357.909598" y="187.282"/>
<use xlink:href="#glyph-2-26" x="363.112501" y="187.282"/>
<use xlink:href="#glyph-2-8" x="368.467236" y="187.282"/>
<use xlink:href="#glyph-2-27" x="372.694594" y="187.282"/>
</g>
<g fill="rgb(0%, 0%, 0%)" fill-opacity="1">
<use xlink:href="#glyph-4-1" x="149.88" y="206.211"/>
</g>
<g fill="rgb(0%, 0%, 0%)" fill-opacity="1">
<use xlink:href="#glyph-5-0" x="162.593" y="206.211"/>
</g>
<g fill="rgb(0%, 0%, 0%)" fill-opacity="1">
<use xlink:href="#glyph-4-2" x="175.019" y="206.211"/>
</g>
<g fill="rgb(0%, 0%, 0%)" fill-opacity="1">
<use xlink:href="#glyph-6-0" x="183.684" y="208.004"/>
</g>
<g fill="rgb(0%, 0%, 0%)" fill-opacity="1">
<use xlink:href="#glyph-5-1" x="191.887" y="206.211"/>
</g>
<g fill="rgb(0%, 0%, 0%)" fill-opacity="1">
<use xlink:href="#glyph-4-3" x="196.439" y="206.211"/>
</g>
<g fill="rgb(0%, 0%, 0%)" fill-opacity="1">
<use xlink:href="#glyph-5-2" x="207.094" y="206.211"/>
</g>
<g fill="rgb(0%, 0%, 0%)" fill-opacity="1">
<use xlink:href="#glyph-5-0" x="226.674227" y="206.211"/>
</g>
<g fill="rgb(0%, 0%, 0%)" fill-opacity="1">
<use xlink:href="#glyph-7-0" x="233.786" y="206.211"/>
</g>
<g fill="rgb(0%, 0%, 0%)" fill-opacity="1">
<use xlink:href="#glyph-4-3" x="260.768" y="206.211"/>
</g>
<g fill="rgb(0%, 0%, 0%)" fill-opacity="1">
<use xlink:href="#glyph-5-0" x="274.744" y="206.211"/>
</g>
<g fill="rgb(0%, 0%, 0%)" fill-opacity="1">
<use xlink:href="#glyph-4-4" x="287.169" y="206.211"/>
</g>
<g fill="rgb(0%, 0%, 0%)" fill-opacity="1">
<use xlink:href="#glyph-6-0" x="296.888" y="208.004"/>
</g>
<g fill="rgb(0%, 0%, 0%)" fill-opacity="1">
<use xlink:href="#glyph-5-1" x="305.091" y="206.211"/>
</g>
<g fill="rgb(0%, 0%, 0%)" fill-opacity="1">
<use xlink:href="#glyph-4-1" x="309.643" y="206.211"/>
</g>
<g fill="rgb(0%, 0%, 0%)" fill-opacity="1">
<use xlink:href="#glyph-5-2" x="319.037" y="206.211"/>
</g>
<path fill="none" stroke-width="0.89664" stroke-linecap="butt" stroke-linejoin="miter" stroke="rgb(0%, 0%, 0%)" stroke-opacity="1" stroke-dasharray="3.9851 2.98883" stroke-miterlimit="10" d="M 0.000375 -11.455563 L 0.000375 -0.0336875 " transform="matrix(1, 0, 0, -1, 236.734, 137.521)"/>
<path fill-rule="nonzero" fill="rgb(0%, 0%, 0%)" fill-opacity="1" stroke-width="0.89664" stroke-linecap="butt" stroke-linejoin="miter" stroke="rgb(0%, 0%, 0%)" stroke-opacity="1" stroke-miterlimit="10" d="M 6.208664 -0.000375 C 5.443039 0.187125 2.095382 1.249625 0.0016325 2.409781 L 0.0016325 -2.406625 C 2.095382 -1.250375 5.443039 -0.187875 6.208664 -0.000375 Z M 6.208664 -0.000375 " transform="matrix(0, -1, -1, 0, 236.734, 137.55632)"/>
<g fill="rgb(0%, 0%, 0%)" fill-opacity="1">
<use xlink:href="#glyph-2-28" x="249.469" y="142.227"/>
</g>
<g fill="rgb(0%, 0%, 0%)" fill-opacity="1">
<use xlink:href="#glyph-2-8" x="256.881224" y="142.227"/>
<use xlink:href="#glyph-2-8" x="261.108583" y="142.227"/>
<use xlink:href="#glyph-2-2" x="265.335941" y="142.227"/>
<use xlink:href="#glyph-2-5" x="270.538844" y="142.227"/>
<use xlink:href="#glyph-2-17" x="279.795756" y="142.227"/>
<use xlink:href="#glyph-2-8" x="285.800853" y="142.227"/>
<use xlink:href="#glyph-2-3" x="290.028212" y="142.227"/>
</g>
<g fill="rgb(0%, 0%, 0%)" fill-opacity="1">
<use xlink:href="#glyph-2-8" x="298.412393" y="142.227"/>
<use xlink:href="#glyph-2-15" x="302.639752" y="142.227"/>
</g>
<g fill="rgb(0%, 0%, 0%)" fill-opacity="1">
<use xlink:href="#glyph-2-18" x="312.402368" y="142.227"/>
<use xlink:href="#glyph-2-16" x="315.155651" y="142.227"/>
<use xlink:href="#glyph-2-8" x="321.160748" y="142.227"/>
<use xlink:href="#glyph-2-2" x="325.388107" y="142.227"/>
<use xlink:href="#glyph-2-7" x="330.59101" y="142.227"/>
</g>
<g fill="rgb(0%, 0%, 0%)" fill-opacity="1">
<use xlink:href="#glyph-2-6" x="334.557745" y="142.227"/>
<use xlink:href="#glyph-2-2" x="339.760648" y="142.227"/>
<use xlink:href="#glyph-2-17" x="344.963551" y="142.227"/>
<use xlink:href="#glyph-2-8" x="350.968648" y="142.227"/>
</g>
<g fill="rgb(0%, 0%, 0%)" fill-opacity="1">
<use xlink:href="#glyph-4-0" x="359.103" y="142.227"/>
</g>
<path fill="none" stroke-width="0.59776" stroke-linecap="butt" stroke-linejoin="miter" stroke="rgb(54.998779%, 54.998779%, 54.998779%)" stroke-opacity="1" stroke-miterlimit="10" d="M -189.925406 -89.2915 L 189.92225 -89.2915 " transform="matrix(1, 0, 0, -1, 236.734, 137.521)"/>
<g fill="rgb(0%, 0%, 0%)" fill-opacity="1">
<use xlink:href="#glyph-3-24" x="98.532" y="245.392"/>
<use xlink:href="#glyph-3-4" x="105.837823" y="245.392"/>
<use xlink:href="#glyph-3-3" x="111.948125" y="245.392"/>
<use xlink:href="#glyph-3-12" x="117.793023" y="245.392"/>
<use xlink:href="#glyph-3-10" x="124.501085" y="245.392"/>
<use xlink:href="#glyph-3-4" x="128.950811" y="245.392"/>
</g>
<g fill="rgb(0%, 0%, 0%)" fill-opacity="1">
<use xlink:href="#glyph-3-22" x="139.448672" y="245.392"/>
</g>
<g fill="rgb(0%, 0%, 0%)" fill-opacity="1">
<use xlink:href="#glyph-3-4" x="145.42149" y="245.392"/>
<use xlink:href="#glyph-3-6" x="151.531793" y="245.392"/>
</g>
<g fill="rgb(0%, 0%, 0%)" fill-opacity="1">
<use xlink:href="#glyph-3-25" x="161.896951" y="245.392"/>
<use xlink:href="#glyph-3-2" x="168.605014" y="245.392"/>
<use xlink:href="#glyph-3-8" x="171.660763" y="245.392"/>
<use xlink:href="#glyph-3-9" x="176.702271" y="245.392"/>
<use xlink:href="#glyph-3-10" x="181.534563" y="245.392"/>
<use xlink:href="#glyph-3-2" x="185.984288" y="245.392"/>
<use xlink:href="#glyph-3-11" x="189.040037" y="245.392"/>
<use xlink:href="#glyph-3-12" x="195.7481" y="245.392"/>
<use xlink:href="#glyph-3-9" x="202.456163" y="245.392"/>
<use xlink:href="#glyph-3-2" x="207.288454" y="245.392"/>
<use xlink:href="#glyph-3-13" x="210.344204" y="245.392"/>
<use xlink:href="#glyph-3-14" x="216.919564" y="245.392"/>
</g>
<g fill="rgb(0%, 0%, 0%)" fill-opacity="1">
<use xlink:href="#glyph-3-2" x="228.003229" y="245.392"/>
<use xlink:href="#glyph-3-8" x="231.058979" y="245.392"/>
</g>
<g fill="rgb(0%, 0%, 0%)" fill-opacity="1">
<use xlink:href="#glyph-3-2" x="240.488045" y="245.392"/>
<use xlink:href="#glyph-3-9" x="243.543794" y="245.392"/>
<use xlink:href="#glyph-3-8" x="248.376086" y="245.392"/>
<use xlink:href="#glyph-3-4" x="253.417594" y="245.392"/>
<use xlink:href="#glyph-3-1" x="259.527896" y="245.392"/>
<use xlink:href="#glyph-3-26" x="262.583645" y="245.392"/>
</g>
<g fill="rgb(0%, 0%, 0%)" fill-opacity="1">
<use xlink:href="#glyph-3-17" x="270.977391" y="245.392"/>
</g>
<g fill="rgb(0%, 0%, 0%)" fill-opacity="1">
<use xlink:href="#glyph-3-8" x="281.64143" y="245.392"/>
<use xlink:href="#glyph-3-4" x="286.682938" y="245.392"/>
<use xlink:href="#glyph-3-3" x="292.79324" y="245.392"/>
<use xlink:href="#glyph-3-12" x="298.638138" y="245.392"/>
<use xlink:href="#glyph-3-10" x="305.3462" y="245.392"/>
<use xlink:href="#glyph-3-2" x="309.795926" y="245.392"/>
<use xlink:href="#glyph-3-9" x="312.851675" y="245.392"/>
</g>
<g fill="rgb(0%, 0%, 0%)" fill-opacity="1">
<use xlink:href="#glyph-3-6" x="317.313356" y="245.392"/>
</g>
<g fill="rgb(0%, 0%, 0%)" fill-opacity="1">
<use xlink:href="#glyph-3-27" x="327.678514" y="245.392"/>
</g>
<g fill="rgb(0%, 0%, 0%)" fill-opacity="1">
<use xlink:href="#glyph-3-10" x="334.027921" y="245.392"/>
<use xlink:href="#glyph-3-13" x="338.477646" y="245.392"/>
<use xlink:href="#glyph-3-11" x="345.053006" y="245.392"/>
<use xlink:href="#glyph-3-1" x="351.761069" y="245.392"/>
<use xlink:href="#glyph-3-4" x="354.816818" y="245.392"/>
<use xlink:href="#glyph-3-28" x="360.927121" y="245.392"/>
<use xlink:href="#glyph-3-29" x="371.288692" y="245.392"/>
</g>
</svg>
